<?xml version="1.0" encoding="utf-8" standalone="no"?>
<!DOCTYPE svg PUBLIC "-//W3C//DTD SVG 1.1//EN"
  "http://www.w3.org/Graphics/SVG/1.1/DTD/svg11.dtd">
<svg xmlns:xlink="http://www.w3.org/1999/xlink" width="612pt" height="216pt" viewBox="0 0 612 216" xmlns="http://www.w3.org/2000/svg" version="1.1">
 <metadata>
  <rdf:RDF xmlns:dc="http://purl.org/dc/elements/1.1/" xmlns:cc="http://creativecommons.org/ns#" xmlns:rdf="http://www.w3.org/1999/02/22-rdf-syntax-ns#">
   <cc:Work>
    <dc:type rdf:resource="http://purl.org/dc/dcmitype/StillImage"/>
    <dc:date>2023-07-10T07:51:47.253698</dc:date>
    <dc:format>image/svg+xml</dc:format>
    <dc:creator>
     <cc:Agent>
      <dc:title>Matplotlib v3.7.1, https://matplotlib.org/</dc:title>
     </cc:Agent>
    </dc:creator>
   </cc:Work>
  </rdf:RDF>
 </metadata>
 <defs>
  <style type="text/css">*{stroke-linejoin: round; stroke-linecap: butt}</style>
 </defs>
 <g id="figure_1">
  <g id="patch_1">
   <path d="M 0 216 
L 612 216 
L 612 0 
L 0 0 
z
" style="fill: #ffffff"/>
  </g>
  <g id="axes_1">
   <g id="patch_2">
    <path d="M 76.5 192.24 
L 550.8 192.24 
L 550.8 25.92 
L 76.5 25.92 
z
" style="fill: #ffffff"/>
   </g>
   <g id="matplotlib.axis_1">
    <g id="ytick_1">
     <g id="line2d_1">
      <defs>
       <path id="m9d83a56135" d="M 0 0 
L -3.5 0 
" style="stroke: #000000; stroke-width: 0.8"/>
      </defs>
      <g>
       <use xlink:href="#m9d83a56135" x="76.5" y="43.907586" style="stroke: #000000; stroke-width: 0.8"/>
      </g>
     </g>
     <g id="text_1">
      <!-- Trainers -->
      <g transform="translate(30.039062 47.706805) scale(0.1 -0.1)">
       <defs>
        <path id="DejaVuSans-54" d="M -19 4666 
L 3928 4666 
L 3928 4134 
L 2272 4134 
L 2272 0 
L 1638 0 
L 1638 4134 
L -19 4134 
L -19 4666 
z
" transform="scale(0.015625)"/>
        <path id="DejaVuSans-72" d="M 2631 2963 
Q 2534 3019 2420 3045 
Q 2306 3072 2169 3072 
Q 1681 3072 1420 2755 
Q 1159 2438 1159 1844 
L 1159 0 
L 581 0 
L 581 3500 
L 1159 3500 
L 1159 2956 
Q 1341 3275 1631 3429 
Q 1922 3584 2338 3584 
Q 2397 3584 2469 3576 
Q 2541 3569 2628 3553 
L 2631 2963 
z
" transform="scale(0.015625)"/>
        <path id="DejaVuSans-61" d="M 2194 1759 
Q 1497 1759 1228 1600 
Q 959 1441 959 1056 
Q 959 750 1161 570 
Q 1363 391 1709 391 
Q 2188 391 2477 730 
Q 2766 1069 2766 1631 
L 2766 1759 
L 2194 1759 
z
M 3341 1997 
L 3341 0 
L 2766 0 
L 2766 531 
Q 2569 213 2275 61 
Q 1981 -91 1556 -91 
Q 1019 -91 701 211 
Q 384 513 384 1019 
Q 384 1609 779 1909 
Q 1175 2209 1959 2209 
L 2766 2209 
L 2766 2266 
Q 2766 2663 2505 2880 
Q 2244 3097 1772 3097 
Q 1472 3097 1187 3025 
Q 903 2953 641 2809 
L 641 3341 
Q 956 3463 1253 3523 
Q 1550 3584 1831 3584 
Q 2591 3584 2966 3190 
Q 3341 2797 3341 1997 
z
" transform="scale(0.015625)"/>
        <path id="DejaVuSans-69" d="M 603 3500 
L 1178 3500 
L 1178 0 
L 603 0 
L 603 3500 
z
M 603 4863 
L 1178 4863 
L 1178 4134 
L 603 4134 
L 603 4863 
z
" transform="scale(0.015625)"/>
        <path id="DejaVuSans-6e" d="M 3513 2113 
L 3513 0 
L 2938 0 
L 2938 2094 
Q 2938 2591 2744 2837 
Q 2550 3084 2163 3084 
Q 1697 3084 1428 2787 
Q 1159 2491 1159 1978 
L 1159 0 
L 581 0 
L 581 3500 
L 1159 3500 
L 1159 2956 
Q 1366 3272 1645 3428 
Q 1925 3584 2291 3584 
Q 2894 3584 3203 3211 
Q 3513 2838 3513 2113 
z
" transform="scale(0.015625)"/>
        <path id="DejaVuSans-65" d="M 3597 1894 
L 3597 1613 
L 953 1613 
Q 991 1019 1311 708 
Q 1631 397 2203 397 
Q 2534 397 2845 478 
Q 3156 559 3463 722 
L 3463 178 
Q 3153 47 2828 -22 
Q 2503 -91 2169 -91 
Q 1331 -91 842 396 
Q 353 884 353 1716 
Q 353 2575 817 3079 
Q 1281 3584 2069 3584 
Q 2775 3584 3186 3129 
Q 3597 2675 3597 1894 
z
M 3022 2063 
Q 3016 2534 2758 2815 
Q 2500 3097 2075 3097 
Q 1594 3097 1305 2825 
Q 1016 2553 972 2059 
L 3022 2063 
z
" transform="scale(0.015625)"/>
        <path id="DejaVuSans-73" d="M 2834 3397 
L 2834 2853 
Q 2591 2978 2328 3040 
Q 2066 3103 1784 3103 
Q 1356 3103 1142 2972 
Q 928 2841 928 2578 
Q 928 2378 1081 2264 
Q 1234 2150 1697 2047 
L 1894 2003 
Q 2506 1872 2764 1633 
Q 3022 1394 3022 966 
Q 3022 478 2636 193 
Q 2250 -91 1575 -91 
Q 1294 -91 989 -36 
Q 684 19 347 128 
L 347 722 
Q 666 556 975 473 
Q 1284 391 1588 391 
Q 1994 391 2212 530 
Q 2431 669 2431 922 
Q 2431 1156 2273 1281 
Q 2116 1406 1581 1522 
L 1381 1569 
Q 847 1681 609 1914 
Q 372 2147 372 2553 
Q 372 3047 722 3315 
Q 1072 3584 1716 3584 
Q 2034 3584 2315 3537 
Q 2597 3491 2834 3397 
z
" transform="scale(0.015625)"/>
       </defs>
       <use xlink:href="#DejaVuSans-54"/>
       <use xlink:href="#DejaVuSans-72" x="46.333984"/>
       <use xlink:href="#DejaVuSans-61" x="87.447266"/>
       <use xlink:href="#DejaVuSans-69" x="148.726562"/>
       <use xlink:href="#DejaVuSans-6e" x="176.509766"/>
       <use xlink:href="#DejaVuSans-65" x="239.888672"/>
       <use xlink:href="#DejaVuSans-72" x="301.412109"/>
       <use xlink:href="#DejaVuSans-73" x="342.525391"/>
      </g>
     </g>
    </g>
    <g id="ytick_2">
     <g id="line2d_2">
      <g>
       <use xlink:href="#m9d83a56135" x="76.5" y="69.976552" style="stroke: #000000; stroke-width: 0.8"/>
      </g>
     </g>
     <g id="text_2">
      <!-- Trainees -->
      <g transform="translate(27.996875 73.77577) scale(0.1 -0.1)">
       <use xlink:href="#DejaVuSans-54"/>
       <use xlink:href="#DejaVuSans-72" x="46.333984"/>
       <use xlink:href="#DejaVuSans-61" x="87.447266"/>
       <use xlink:href="#DejaVuSans-69" x="148.726562"/>
       <use xlink:href="#DejaVuSans-6e" x="176.509766"/>
       <use xlink:href="#DejaVuSans-65" x="239.888672"/>
       <use xlink:href="#DejaVuSans-65" x="301.412109"/>
       <use xlink:href="#DejaVuSans-73" x="362.935547"/>
      </g>
     </g>
    </g>
    <g id="ytick_3">
     <g id="line2d_3">
      <g>
       <use xlink:href="#m9d83a56135" x="76.5" y="96.045517" style="stroke: #000000; stroke-width: 0.8"/>
      </g>
     </g>
     <g id="text_3">
      <!-- Female -->
      <g transform="translate(33.345312 99.844736) scale(0.1 -0.1)">
       <defs>
        <path id="DejaVuSans-46" d="M 628 4666 
L 3309 4666 
L 3309 4134 
L 1259 4134 
L 1259 2759 
L 3109 2759 
L 3109 2228 
L 1259 2228 
L 1259 0 
L 628 0 
L 628 4666 
z
" transform="scale(0.015625)"/>
        <path id="DejaVuSans-6d" d="M 3328 2828 
Q 3544 3216 3844 3400 
Q 4144 3584 4550 3584 
Q 5097 3584 5394 3201 
Q 5691 2819 5691 2113 
L 5691 0 
L 5113 0 
L 5113 2094 
Q 5113 2597 4934 2840 
Q 4756 3084 4391 3084 
Q 3944 3084 3684 2787 
Q 3425 2491 3425 1978 
L 3425 0 
L 2847 0 
L 2847 2094 
Q 2847 2600 2669 2842 
Q 2491 3084 2119 3084 
Q 1678 3084 1418 2786 
Q 1159 2488 1159 1978 
L 1159 0 
L 581 0 
L 581 3500 
L 1159 3500 
L 1159 2956 
Q 1356 3278 1631 3431 
Q 1906 3584 2284 3584 
Q 2666 3584 2933 3390 
Q 3200 3197 3328 2828 
z
" transform="scale(0.015625)"/>
        <path id="DejaVuSans-6c" d="M 603 4863 
L 1178 4863 
L 1178 0 
L 603 0 
L 603 4863 
z
" transform="scale(0.015625)"/>
       </defs>
       <use xlink:href="#DejaVuSans-46"/>
       <use xlink:href="#DejaVuSans-65" x="52.019531"/>
       <use xlink:href="#DejaVuSans-6d" x="113.542969"/>
       <use xlink:href="#DejaVuSans-61" x="210.955078"/>
       <use xlink:href="#DejaVuSans-6c" x="272.234375"/>
       <use xlink:href="#DejaVuSans-65" x="300.017578"/>
      </g>
     </g>
    </g>
    <g id="ytick_4">
     <g id="line2d_4">
      <g>
       <use xlink:href="#m9d83a56135" x="76.5" y="122.114483" style="stroke: #000000; stroke-width: 0.8"/>
      </g>
     </g>
     <g id="text_4">
      <!-- Male -->
      <g transform="translate(45.8125 125.913702) scale(0.1 -0.1)">
       <defs>
        <path id="DejaVuSans-4d" d="M 628 4666 
L 1569 4666 
L 2759 1491 
L 3956 4666 
L 4897 4666 
L 4897 0 
L 4281 0 
L 4281 4097 
L 3078 897 
L 2444 897 
L 1241 4097 
L 1241 0 
L 628 0 
L 628 4666 
z
" transform="scale(0.015625)"/>
       </defs>
       <use xlink:href="#DejaVuSans-4d"/>
       <use xlink:href="#DejaVuSans-61" x="86.279297"/>
       <use xlink:href="#DejaVuSans-6c" x="147.558594"/>
       <use xlink:href="#DejaVuSans-65" x="175.341797"/>
      </g>
     </g>
    </g>
    <g id="ytick_5">
     <g id="line2d_5">
      <g>
       <use xlink:href="#m9d83a56135" x="76.5" y="148.183448" style="stroke: #000000; stroke-width: 0.8"/>
      </g>
     </g>
     <g id="text_5">
      <!-- Part-Time -->
      <g transform="translate(22.598437 151.982667) scale(0.1 -0.1)">
       <defs>
        <path id="DejaVuSans-50" d="M 1259 4147 
L 1259 2394 
L 2053 2394 
Q 2494 2394 2734 2622 
Q 2975 2850 2975 3272 
Q 2975 3691 2734 3919 
Q 2494 4147 2053 4147 
L 1259 4147 
z
M 628 4666 
L 2053 4666 
Q 2838 4666 3239 4311 
Q 3641 3956 3641 3272 
Q 3641 2581 3239 2228 
Q 2838 1875 2053 1875 
L 1259 1875 
L 1259 0 
L 628 0 
L 628 4666 
z
" transform="scale(0.015625)"/>
        <path id="DejaVuSans-74" d="M 1172 4494 
L 1172 3500 
L 2356 3500 
L 2356 3053 
L 1172 3053 
L 1172 1153 
Q 1172 725 1289 603 
Q 1406 481 1766 481 
L 2356 481 
L 2356 0 
L 1766 0 
Q 1100 0 847 248 
Q 594 497 594 1153 
L 594 3053 
L 172 3053 
L 172 3500 
L 594 3500 
L 594 4494 
L 1172 4494 
z
" transform="scale(0.015625)"/>
        <path id="DejaVuSans-2d" d="M 313 2009 
L 1997 2009 
L 1997 1497 
L 313 1497 
L 313 2009 
z
" transform="scale(0.015625)"/>
       </defs>
       <use xlink:href="#DejaVuSans-50"/>
       <use xlink:href="#DejaVuSans-61" x="55.802734"/>
       <use xlink:href="#DejaVuSans-72" x="117.082031"/>
       <use xlink:href="#DejaVuSans-74" x="158.195312"/>
       <use xlink:href="#DejaVuSans-2d" x="197.404297"/>
       <use xlink:href="#DejaVuSans-54" x="224.363281"/>
       <use xlink:href="#DejaVuSans-69" x="282.322266"/>
       <use xlink:href="#DejaVuSans-6d" x="310.105469"/>
       <use xlink:href="#DejaVuSans-65" x="407.517578"/>
      </g>
     </g>
    </g>
    <g id="ytick_6">
     <g id="line2d_6">
      <g>
       <use xlink:href="#m9d83a56135" x="76.5" y="174.252414" style="stroke: #000000; stroke-width: 0.8"/>
      </g>
     </g>
     <g id="text_6">
      <!-- Full-Time -->
      <g transform="translate(25.242188 178.051633) scale(0.1 -0.1)">
       <defs>
        <path id="DejaVuSans-75" d="M 544 1381 
L 544 3500 
L 1119 3500 
L 1119 1403 
Q 1119 906 1312 657 
Q 1506 409 1894 409 
Q 2359 409 2629 706 
Q 2900 1003 2900 1516 
L 2900 3500 
L 3475 3500 
L 3475 0 
L 2900 0 
L 2900 538 
Q 2691 219 2414 64 
Q 2138 -91 1772 -91 
Q 1169 -91 856 284 
Q 544 659 544 1381 
z
M 1991 3584 
L 1991 3584 
z
" transform="scale(0.015625)"/>
       </defs>
       <use xlink:href="#DejaVuSans-46"/>
       <use xlink:href="#DejaVuSans-75" x="52.019531"/>
       <use xlink:href="#DejaVuSans-6c" x="115.398438"/>
       <use xlink:href="#DejaVuSans-6c" x="143.181641"/>
       <use xlink:href="#DejaVuSans-2d" x="170.964844"/>
       <use xlink:href="#DejaVuSans-54" x="197.923828"/>
       <use xlink:href="#DejaVuSans-69" x="255.882812"/>
       <use xlink:href="#DejaVuSans-6d" x="283.666016"/>
       <use xlink:href="#DejaVuSans-65" x="381.078125"/>
      </g>
     </g>
    </g>
   </g>
   <g id="patch_3">
    <path d="M 76.5 33.48 
L 161.06989 33.48 
L 161.06989 54.335172 
L 76.5 54.335172 
z
" clip-path="url(#pa4933586a4)" style="fill: #ffffff"/>
   </g>
   <g id="patch_4">
    <path d="M 76.5 59.548966 
L 94.788897 59.548966 
L 94.788897 80.404138 
L 76.5 80.404138 
z
" clip-path="url(#pa4933586a4)" style="fill: #ffffff"/>
   </g>
   <g id="patch_5">
    <path d="M 76.5 85.617931 
L 96.123975 85.617931 
L 96.123975 106.473103 
L 76.5 106.473103 
z
" clip-path="url(#pa4933586a4)" style="fill: #ffffff"/>
   </g>
   <g id="patch_6">
    <path d="M 76.5 111.686897 
L 165.167911 111.686897 
L 165.167911 132.542069 
L 76.5 132.542069 
z
" clip-path="url(#pa4933586a4)" style="fill: #ffffff"/>
   </g>
   <g id="patch_7">
    <path d="M 76.5 137.755862 
L 98.604351 137.755862 
L 98.604351 158.611034 
L 76.5 158.611034 
z
" clip-path="url(#pa4933586a4)" style="fill: #ffffff"/>
   </g>
   <g id="patch_8">
    <path d="M 76.5 163.824828 
L 166.733162 163.824828 
L 166.733162 184.68 
L 76.5 184.68 
z
" clip-path="url(#pa4933586a4)" style="fill: #ffffff"/>
   </g>
   <g id="line2d_7">
    <path d="M 76.5 83.011034 
L 550.8 83.011034 
" clip-path="url(#pa4933586a4)" style="fill: none; stroke-dasharray: 2.96,1.28; stroke-dashoffset: 0; stroke: #000000; stroke-width: 0.8"/>
   </g>
   <g id="line2d_8">
    <path d="M 76.5 135.148966 
L 550.8 135.148966 
" clip-path="url(#pa4933586a4)" style="fill: none; stroke-dasharray: 2.96,1.28; stroke-dashoffset: 0; stroke: #000000; stroke-width: 0.8"/>
   </g>
   <g id="patch_9">
    <path d="M 76.5 192.24 
L 76.5 25.92 
" style="fill: none; stroke: #000000; stroke-width: 0.8; stroke-linejoin: miter; stroke-linecap: square"/>
   </g>
   <g id="patch_10">
    <path d="M 550.8 192.24 
L 550.8 25.92 
" style="fill: none; stroke: #000000; stroke-width: 0.8; stroke-linejoin: miter; stroke-linecap: square"/>
   </g>
   <g id="patch_11">
    <path d="M 76.5 192.24 
L 550.8 192.24 
" style="fill: none; stroke: #000000; stroke-width: 0.8; stroke-linejoin: miter; stroke-linecap: square"/>
   </g>
   <g id="patch_12">
    <path d="M 76.5 25.92 
L 550.8 25.92 
" style="fill: none; stroke: #000000; stroke-width: 0.8; stroke-linejoin: miter; stroke-linecap: square"/>
   </g>
   <g id="patch_13">
    <path d="M 161.06989 33.48 
L 304.24737 33.48 
L 304.24737 54.335172 
L 161.06989 54.335172 
z
" clip-path="url(#pa4933586a4)" style="fill: #d65244"/>
   </g>
   <g id="patch_14">
    <path d="M 94.788897 59.548966 
L 338.206958 59.548966 
L 338.206958 80.404138 
L 94.788897 80.404138 
z
" clip-path="url(#pa4933586a4)" style="fill: #d65244"/>
   </g>
   <g id="patch_15">
    <path d="M 96.123975 85.617931 
L 327.470707 85.617931 
L 327.470707 106.473103 
L 96.123975 106.473103 
z
" clip-path="url(#pa4933586a4)" style="fill: #d65244"/>
   </g>
   <g id="patch_16">
    <path d="M 165.167911 111.686897 
L 303.423264 111.686897 
L 303.423264 132.542069 
L 165.167911 132.542069 
z
" clip-path="url(#pa4933586a4)" style="fill: #d65244"/>
   </g>
   <g id="patch_17">
    <path d="M 98.604351 137.755862 
L 336.410395 137.755862 
L 336.410395 158.611034 
L 98.604351 158.611034 
z
" clip-path="url(#pa4933586a4)" style="fill: #d65244"/>
   </g>
   <g id="patch_18">
    <path d="M 166.733162 163.824828 
L 300.030477 163.824828 
L 300.030477 184.68 
L 166.733162 184.68 
z
" clip-path="url(#pa4933586a4)" style="fill: #d65244"/>
   </g>
   <g id="patch_19">
    <path d="M 304.24737 33.48 
L 415.007308 33.48 
L 415.007308 54.335172 
L 304.24737 54.335172 
z
" clip-path="url(#pa4933586a4)" style="fill: #f5c1a9"/>
   </g>
   <g id="patch_20">
    <path d="M 338.206958 59.548966 
L 415.007308 59.548966 
L 415.007308 80.404138 
L 338.206958 80.404138 
z
" clip-path="url(#pa4933586a4)" style="fill: #f5c1a9"/>
   </g>
   <g id="patch_21">
    <path d="M 327.470707 85.617931 
L 415.007308 85.617931 
L 415.007308 106.473103 
L 327.470707 106.473103 
z
" clip-path="url(#pa4933586a4)" style="fill: #f5c1a9"/>
   </g>
   <g id="patch_22">
    <path d="M 303.423264 111.686897 
L 415.007308 111.686897 
L 415.007308 132.542069 
L 303.423264 132.542069 
z
" clip-path="url(#pa4933586a4)" style="fill: #f5c1a9"/>
   </g>
   <g id="patch_23">
    <path d="M 336.410395 137.755862 
L 415.007308 137.755862 
L 415.007308 158.611034 
L 336.410395 158.611034 
z
" clip-path="url(#pa4933586a4)" style="fill: #f5c1a9"/>
   </g>
   <g id="patch_24">
    <path d="M 300.030477 163.824828 
L 415.007308 163.824828 
L 415.007308 184.68 
L 300.030477 184.68 
z
" clip-path="url(#pa4933586a4)" style="fill: #f5c1a9"/>
   </g>
   <g id="patch_25">
    <path d="M 415.007308 33.48 
L 482.003563 33.48 
L 482.003563 54.335172 
L 415.007308 54.335172 
z
" clip-path="url(#pa4933586a4)" style="fill: #b5cdfa"/>
   </g>
   <g id="patch_26">
    <path d="M 415.007308 59.548966 
L 448.851531 59.548966 
L 448.851531 80.404138 
L 415.007308 80.404138 
z
" clip-path="url(#pa4933586a4)" style="fill: #b5cdfa"/>
   </g>
   <g id="patch_27">
    <path d="M 415.007308 85.617931 
L 449.396687 85.617931 
L 449.396687 106.473103 
L 415.007308 106.473103 
z
" clip-path="url(#pa4933586a4)" style="fill: #b5cdfa"/>
   </g>
   <g id="patch_28">
    <path d="M 415.007308 111.686897 
L 485.767922 111.686897 
L 485.767922 132.542069 
L 415.007308 132.542069 
z
" clip-path="url(#pa4933586a4)" style="fill: #b5cdfa"/>
   </g>
   <g id="patch_29">
    <path d="M 415.007308 137.755862 
L 451.282807 137.755862 
L 451.282807 158.611034 
L 415.007308 158.611034 
z
" clip-path="url(#pa4933586a4)" style="fill: #b5cdfa"/>
   </g>
   <g id="patch_30">
    <path d="M 415.007308 163.824828 
L 486.394022 163.824828 
L 486.394022 184.68 
L 415.007308 184.68 
z
" clip-path="url(#pa4933586a4)" style="fill: #b5cdfa"/>
   </g>
   <g id="patch_31">
    <path d="M 482.003563 33.48 
L 526.847831 33.48 
L 526.847831 54.335172 
L 482.003563 54.335172 
z
" clip-path="url(#pa4933586a4)" style="fill: #5977e3"/>
   </g>
   <g id="patch_32">
    <path d="M 448.851531 59.548966 
L 460.566838 59.548966 
L 460.566838 80.404138 
L 448.851531 80.404138 
z
" clip-path="url(#pa4933586a4)" style="fill: #5977e3"/>
   </g>
   <g id="patch_33">
    <path d="M 449.396687 85.617931 
L 461.901916 85.617931 
L 461.901916 106.473103 
L 449.396687 106.473103 
z
" clip-path="url(#pa4933586a4)" style="fill: #5977e3"/>
   </g>
   <g id="patch_34">
    <path d="M 485.767922 111.686897 
L 530.945852 111.686897 
L 530.945852 132.542069 
L 485.767922 132.542069 
z
" clip-path="url(#pa4933586a4)" style="fill: #5977e3"/>
   </g>
   <g id="patch_35">
    <path d="M 451.282807 137.755862 
L 464.382292 137.755862 
L 464.382292 158.611034 
L 451.282807 158.611034 
z
" clip-path="url(#pa4933586a4)" style="fill: #5977e3"/>
   </g>
   <g id="patch_36">
    <path d="M 486.394022 163.824828 
L 532.511103 163.824828 
L 532.511103 184.68 
L 486.394022 184.68 
z
" clip-path="url(#pa4933586a4)" style="fill: #5977e3"/>
   </g>
   <g id="text_7">
    <!-- Part-time work … lead to disadvantages in training. -->
    <g transform="translate(158.957813 19.92) scale(0.12 -0.12)">
     <defs>
      <path id="DejaVuSans-20" transform="scale(0.015625)"/>
      <path id="DejaVuSans-77" d="M 269 3500 
L 844 3500 
L 1563 769 
L 2278 3500 
L 2956 3500 
L 3675 769 
L 4391 3500 
L 4966 3500 
L 4050 0 
L 3372 0 
L 2619 2869 
L 1863 0 
L 1184 0 
L 269 3500 
z
" transform="scale(0.015625)"/>
      <path id="DejaVuSans-6f" d="M 1959 3097 
Q 1497 3097 1228 2736 
Q 959 2375 959 1747 
Q 959 1119 1226 758 
Q 1494 397 1959 397 
Q 2419 397 2687 759 
Q 2956 1122 2956 1747 
Q 2956 2369 2687 2733 
Q 2419 3097 1959 3097 
z
M 1959 3584 
Q 2709 3584 3137 3096 
Q 3566 2609 3566 1747 
Q 3566 888 3137 398 
Q 2709 -91 1959 -91 
Q 1206 -91 779 398 
Q 353 888 353 1747 
Q 353 2609 779 3096 
Q 1206 3584 1959 3584 
z
" transform="scale(0.015625)"/>
      <path id="DejaVuSans-6b" d="M 581 4863 
L 1159 4863 
L 1159 1991 
L 2875 3500 
L 3609 3500 
L 1753 1863 
L 3688 0 
L 2938 0 
L 1159 1709 
L 1159 0 
L 581 0 
L 581 4863 
z
" transform="scale(0.015625)"/>
      <path id="DejaVuSans-2026" d="M 2869 794 
L 3531 794 
L 3531 0 
L 2869 0 
L 2869 794 
z
M 4997 794 
L 5663 794 
L 5663 0 
L 4997 0 
L 4997 794 
z
M 738 794 
L 1403 794 
L 1403 0 
L 738 0 
L 738 794 
z
" transform="scale(0.015625)"/>
      <path id="DejaVuSans-64" d="M 2906 2969 
L 2906 4863 
L 3481 4863 
L 3481 0 
L 2906 0 
L 2906 525 
Q 2725 213 2448 61 
Q 2172 -91 1784 -91 
Q 1150 -91 751 415 
Q 353 922 353 1747 
Q 353 2572 751 3078 
Q 1150 3584 1784 3584 
Q 2172 3584 2448 3432 
Q 2725 3281 2906 2969 
z
M 947 1747 
Q 947 1113 1208 752 
Q 1469 391 1925 391 
Q 2381 391 2643 752 
Q 2906 1113 2906 1747 
Q 2906 2381 2643 2742 
Q 2381 3103 1925 3103 
Q 1469 3103 1208 2742 
Q 947 2381 947 1747 
z
" transform="scale(0.015625)"/>
      <path id="DejaVuSans-76" d="M 191 3500 
L 800 3500 
L 1894 563 
L 2988 3500 
L 3597 3500 
L 2284 0 
L 1503 0 
L 191 3500 
z
" transform="scale(0.015625)"/>
      <path id="DejaVuSans-67" d="M 2906 1791 
Q 2906 2416 2648 2759 
Q 2391 3103 1925 3103 
Q 1463 3103 1205 2759 
Q 947 2416 947 1791 
Q 947 1169 1205 825 
Q 1463 481 1925 481 
Q 2391 481 2648 825 
Q 2906 1169 2906 1791 
z
M 3481 434 
Q 3481 -459 3084 -895 
Q 2688 -1331 1869 -1331 
Q 1566 -1331 1297 -1286 
Q 1028 -1241 775 -1147 
L 775 -588 
Q 1028 -725 1275 -790 
Q 1522 -856 1778 -856 
Q 2344 -856 2625 -561 
Q 2906 -266 2906 331 
L 2906 616 
Q 2728 306 2450 153 
Q 2172 0 1784 0 
Q 1141 0 747 490 
Q 353 981 353 1791 
Q 353 2603 747 3093 
Q 1141 3584 1784 3584 
Q 2172 3584 2450 3431 
Q 2728 3278 2906 2969 
L 2906 3500 
L 3481 3500 
L 3481 434 
z
" transform="scale(0.015625)"/>
      <path id="DejaVuSans-2e" d="M 684 794 
L 1344 794 
L 1344 0 
L 684 0 
L 684 794 
z
" transform="scale(0.015625)"/>
     </defs>
     <use xlink:href="#DejaVuSans-50"/>
     <use xlink:href="#DejaVuSans-61" x="55.802734"/>
     <use xlink:href="#DejaVuSans-72" x="117.082031"/>
     <use xlink:href="#DejaVuSans-74" x="158.195312"/>
     <use xlink:href="#DejaVuSans-2d" x="197.404297"/>
     <use xlink:href="#DejaVuSans-74" x="233.488281"/>
     <use xlink:href="#DejaVuSans-69" x="272.697266"/>
     <use xlink:href="#DejaVuSans-6d" x="300.480469"/>
     <use xlink:href="#DejaVuSans-65" x="397.892578"/>
     <use xlink:href="#DejaVuSans-20" x="459.416016"/>
     <use xlink:href="#DejaVuSans-77" x="491.203125"/>
     <use xlink:href="#DejaVuSans-6f" x="572.990234"/>
     <use xlink:href="#DejaVuSans-72" x="634.171875"/>
     <use xlink:href="#DejaVuSans-6b" x="675.285156"/>
     <use xlink:href="#DejaVuSans-20" x="733.195312"/>
     <use xlink:href="#DejaVuSans-2026" x="764.982422"/>
     <use xlink:href="#DejaVuSans-20" x="864.982422"/>
     <use xlink:href="#DejaVuSans-6c" x="896.769531"/>
     <use xlink:href="#DejaVuSans-65" x="924.552734"/>
     <use xlink:href="#DejaVuSans-61" x="986.076172"/>
     <use xlink:href="#DejaVuSans-64" x="1047.355469"/>
     <use xlink:href="#DejaVuSans-20" x="1110.832031"/>
     <use xlink:href="#DejaVuSans-74" x="1142.619141"/>
     <use xlink:href="#DejaVuSans-6f" x="1181.828125"/>
     <use xlink:href="#DejaVuSans-20" x="1243.009766"/>
     <use xlink:href="#DejaVuSans-64" x="1274.796875"/>
     <use xlink:href="#DejaVuSans-69" x="1338.273438"/>
     <use xlink:href="#DejaVuSans-73" x="1366.056641"/>
     <use xlink:href="#DejaVuSans-61" x="1418.15625"/>
     <use xlink:href="#DejaVuSans-64" x="1479.435547"/>
     <use xlink:href="#DejaVuSans-76" x="1542.912109"/>
     <use xlink:href="#DejaVuSans-61" x="1602.091797"/>
     <use xlink:href="#DejaVuSans-6e" x="1663.371094"/>
     <use xlink:href="#DejaVuSans-74" x="1726.75"/>
     <use xlink:href="#DejaVuSans-61" x="1765.958984"/>
     <use xlink:href="#DejaVuSans-67" x="1827.238281"/>
     <use xlink:href="#DejaVuSans-65" x="1890.714844"/>
     <use xlink:href="#DejaVuSans-73" x="1952.238281"/>
     <use xlink:href="#DejaVuSans-20" x="2004.337891"/>
     <use xlink:href="#DejaVuSans-69" x="2036.125"/>
     <use xlink:href="#DejaVuSans-6e" x="2063.908203"/>
     <use xlink:href="#DejaVuSans-20" x="2127.287109"/>
     <use xlink:href="#DejaVuSans-74" x="2159.074219"/>
     <use xlink:href="#DejaVuSans-72" x="2198.283203"/>
     <use xlink:href="#DejaVuSans-61" x="2239.396484"/>
     <use xlink:href="#DejaVuSans-69" x="2300.675781"/>
     <use xlink:href="#DejaVuSans-6e" x="2328.458984"/>
     <use xlink:href="#DejaVuSans-69" x="2391.837891"/>
     <use xlink:href="#DejaVuSans-6e" x="2419.621094"/>
     <use xlink:href="#DejaVuSans-67" x="2483"/>
     <use xlink:href="#DejaVuSans-2e" x="2546.476562"/>
    </g>
   </g>
   <g id="legend_1">
    <g id="patch_37">
     <path d="M 82.909 217.188 
L 545.547 217.188 
Q 547.213 217.188 547.213 215.522 
L 547.213 204.128122 
Q 547.213 202.462122 545.547 202.462122 
L 82.909 202.462122 
Q 81.243 202.462122 81.243 204.128122 
L 81.243 215.522 
Q 81.243 217.188 82.909 217.188 
z
" style="fill: #ffffff; opacity: 0.8; stroke: #cccccc; stroke-linejoin: miter"/>
    </g>
    <g id="patch_38">
     <path d="M 84.575 212.12362 
L 101.235 212.12362 
L 101.235 206.29262 
L 84.575 206.29262 
z
" style="fill: #d65244"/>
    </g>
    <g id="text_8">
     <!-- must not -->
     <g transform="translate(107.899 212.12362) scale(0.0833 -0.0833)">
      <use xlink:href="#DejaVuSans-6d"/>
      <use xlink:href="#DejaVuSans-75" x="97.412109"/>
      <use xlink:href="#DejaVuSans-73" x="160.791016"/>
      <use xlink:href="#DejaVuSans-74" x="212.890625"/>
      <use xlink:href="#DejaVuSans-20" x="252.099609"/>
      <use xlink:href="#DejaVuSans-6e" x="283.886719"/>
      <use xlink:href="#DejaVuSans-6f" x="347.265625"/>
      <use xlink:href="#DejaVuSans-74" x="408.447266"/>
     </g>
    </g>
    <g id="patch_39">
     <path d="M 502.408012 212.12362 
L 519.068013 212.12362 
L 519.068013 206.29262 
L 502.408012 206.29262 
z
" style="fill: #5977e3"/>
    </g>
    <g id="text_9">
     <!-- may -->
     <g transform="translate(525.732012 212.12362) scale(0.0833 -0.0833)">
      <defs>
       <path id="DejaVuSans-79" d="M 2059 -325 
Q 1816 -950 1584 -1140 
Q 1353 -1331 966 -1331 
L 506 -1331 
L 506 -850 
L 844 -850 
Q 1081 -850 1212 -737 
Q 1344 -625 1503 -206 
L 1606 56 
L 191 3500 
L 800 3500 
L 1894 763 
L 2988 3500 
L 3597 3500 
L 2059 -325 
z
" transform="scale(0.015625)"/>
      </defs>
      <use xlink:href="#DejaVuSans-6d"/>
      <use xlink:href="#DejaVuSans-61" x="97.412109"/>
      <use xlink:href="#DejaVuSans-79" x="158.691406"/>
     </g>
    </g>
   </g>
   <g id="line2d_9">
    <path d="M 415.007308 192.24 
L 415.007308 25.92 
" clip-path="url(#pa4933586a4)" style="fill: none; stroke: #808080; stroke-width: 1.5; stroke-linecap: square"/>
   </g>
   <g id="text_10">
    <!-- 39% -->
    <g style="fill: #ffffff" transform="translate(221.545349 46.666961) scale(0.1 -0.1)">
     <defs>
      <path id="DejaVuSans-33" d="M 2597 2516 
Q 3050 2419 3304 2112 
Q 3559 1806 3559 1356 
Q 3559 666 3084 287 
Q 2609 -91 1734 -91 
Q 1441 -91 1130 -33 
Q 819 25 488 141 
L 488 750 
Q 750 597 1062 519 
Q 1375 441 1716 441 
Q 2309 441 2620 675 
Q 2931 909 2931 1356 
Q 2931 1769 2642 2001 
Q 2353 2234 1838 2234 
L 1294 2234 
L 1294 2753 
L 1863 2753 
Q 2328 2753 2575 2939 
Q 2822 3125 2822 3475 
Q 2822 3834 2567 4026 
Q 2313 4219 1838 4219 
Q 1578 4219 1281 4162 
Q 984 4106 628 3988 
L 628 4550 
Q 988 4650 1302 4700 
Q 1616 4750 1894 4750 
Q 2613 4750 3031 4423 
Q 3450 4097 3450 3541 
Q 3450 3153 3228 2886 
Q 3006 2619 2597 2516 
z
" transform="scale(0.015625)"/>
      <path id="DejaVuSans-39" d="M 703 97 
L 703 672 
Q 941 559 1184 500 
Q 1428 441 1663 441 
Q 2288 441 2617 861 
Q 2947 1281 2994 2138 
Q 2813 1869 2534 1725 
Q 2256 1581 1919 1581 
Q 1219 1581 811 2004 
Q 403 2428 403 3163 
Q 403 3881 828 4315 
Q 1253 4750 1959 4750 
Q 2769 4750 3195 4129 
Q 3622 3509 3622 2328 
Q 3622 1225 3098 567 
Q 2575 -91 1691 -91 
Q 1453 -91 1209 -44 
Q 966 3 703 97 
z
M 1959 2075 
Q 2384 2075 2632 2365 
Q 2881 2656 2881 3163 
Q 2881 3666 2632 3958 
Q 2384 4250 1959 4250 
Q 1534 4250 1286 3958 
Q 1038 3666 1038 3163 
Q 1038 2656 1286 2365 
Q 1534 2075 1959 2075 
z
" transform="scale(0.015625)"/>
      <path id="DejaVuSans-25" d="M 4653 2053 
Q 4381 2053 4226 1822 
Q 4072 1591 4072 1178 
Q 4072 772 4226 539 
Q 4381 306 4653 306 
Q 4919 306 5073 539 
Q 5228 772 5228 1178 
Q 5228 1588 5073 1820 
Q 4919 2053 4653 2053 
z
M 4653 2450 
Q 5147 2450 5437 2106 
Q 5728 1763 5728 1178 
Q 5728 594 5436 251 
Q 5144 -91 4653 -91 
Q 4153 -91 3862 251 
Q 3572 594 3572 1178 
Q 3572 1766 3864 2108 
Q 4156 2450 4653 2450 
z
M 1428 4353 
Q 1159 4353 1004 4120 
Q 850 3888 850 3481 
Q 850 3069 1003 2837 
Q 1156 2606 1428 2606 
Q 1700 2606 1854 2837 
Q 2009 3069 2009 3481 
Q 2009 3884 1853 4118 
Q 1697 4353 1428 4353 
z
M 4250 4750 
L 4750 4750 
L 1831 -91 
L 1331 -91 
L 4250 4750 
z
M 1428 4750 
Q 1922 4750 2215 4408 
Q 2509 4066 2509 3481 
Q 2509 2891 2217 2550 
Q 1925 2209 1428 2209 
Q 931 2209 642 2551 
Q 353 2894 353 3481 
Q 353 4063 643 4406 
Q 934 4750 1428 4750 
z
" transform="scale(0.015625)"/>
     </defs>
     <use xlink:href="#DejaVuSans-33"/>
     <use xlink:href="#DejaVuSans-39" x="63.623047"/>
     <use xlink:href="#DejaVuSans-25" x="127.246094"/>
    </g>
   </g>
   <g id="text_11">
    <!-- 30% -->
    <g transform="translate(348.514058 46.666961) scale(0.1 -0.1)">
     <defs>
      <path id="DejaVuSans-30" d="M 2034 4250 
Q 1547 4250 1301 3770 
Q 1056 3291 1056 2328 
Q 1056 1369 1301 889 
Q 1547 409 2034 409 
Q 2525 409 2770 889 
Q 3016 1369 3016 2328 
Q 3016 3291 2770 3770 
Q 2525 4250 2034 4250 
z
M 2034 4750 
Q 2819 4750 3233 4129 
Q 3647 3509 3647 2328 
Q 3647 1150 3233 529 
Q 2819 -91 2034 -91 
Q 1250 -91 836 529 
Q 422 1150 422 2328 
Q 422 3509 836 4129 
Q 1250 4750 2034 4750 
z
" transform="scale(0.015625)"/>
     </defs>
     <use xlink:href="#DejaVuSans-33"/>
     <use xlink:href="#DejaVuSans-30" x="63.623047"/>
     <use xlink:href="#DejaVuSans-25" x="127.246094"/>
    </g>
   </g>
   <g id="text_12">
    <!-- 18% -->
    <g transform="translate(437.392155 46.666961) scale(0.1 -0.1)">
     <defs>
      <path id="DejaVuSans-31" d="M 794 531 
L 1825 531 
L 1825 4091 
L 703 3866 
L 703 4441 
L 1819 4666 
L 2450 4666 
L 2450 531 
L 3481 531 
L 3481 0 
L 794 0 
L 794 531 
z
" transform="scale(0.015625)"/>
      <path id="DejaVuSans-38" d="M 2034 2216 
Q 1584 2216 1326 1975 
Q 1069 1734 1069 1313 
Q 1069 891 1326 650 
Q 1584 409 2034 409 
Q 2484 409 2743 651 
Q 3003 894 3003 1313 
Q 3003 1734 2745 1975 
Q 2488 2216 2034 2216 
z
M 1403 2484 
Q 997 2584 770 2862 
Q 544 3141 544 3541 
Q 544 4100 942 4425 
Q 1341 4750 2034 4750 
Q 2731 4750 3128 4425 
Q 3525 4100 3525 3541 
Q 3525 3141 3298 2862 
Q 3072 2584 2669 2484 
Q 3125 2378 3379 2068 
Q 3634 1759 3634 1313 
Q 3634 634 3220 271 
Q 2806 -91 2034 -91 
Q 1263 -91 848 271 
Q 434 634 434 1313 
Q 434 1759 690 2068 
Q 947 2378 1403 2484 
z
M 1172 3481 
Q 1172 3119 1398 2916 
Q 1625 2713 2034 2713 
Q 2441 2713 2670 2916 
Q 2900 3119 2900 3481 
Q 2900 3844 2670 4047 
Q 2441 4250 2034 4250 
Q 1625 4250 1398 4047 
Q 1172 3844 1172 3481 
z
" transform="scale(0.015625)"/>
     </defs>
     <use xlink:href="#DejaVuSans-31"/>
     <use xlink:href="#DejaVuSans-38" x="63.623047"/>
     <use xlink:href="#DejaVuSans-25" x="127.246094"/>
    </g>
   </g>
   <g id="text_13">
    <!-- 12% -->
    <g style="fill: #ffffff" transform="translate(493.312416 46.666961) scale(0.1 -0.1)">
     <defs>
      <path id="DejaVuSans-32" d="M 1228 531 
L 3431 531 
L 3431 0 
L 469 0 
L 469 531 
Q 828 903 1448 1529 
Q 2069 2156 2228 2338 
Q 2531 2678 2651 2914 
Q 2772 3150 2772 3378 
Q 2772 3750 2511 3984 
Q 2250 4219 1831 4219 
Q 1534 4219 1204 4116 
Q 875 4013 500 3803 
L 500 4441 
Q 881 4594 1212 4672 
Q 1544 4750 1819 4750 
Q 2544 4750 2975 4387 
Q 3406 4025 3406 3419 
Q 3406 3131 3298 2873 
Q 3191 2616 2906 2266 
Q 2828 2175 2409 1742 
Q 1991 1309 1228 531 
z
" transform="scale(0.015625)"/>
     </defs>
     <use xlink:href="#DejaVuSans-31"/>
     <use xlink:href="#DejaVuSans-32" x="63.623047"/>
     <use xlink:href="#DejaVuSans-25" x="127.246094"/>
    </g>
   </g>
   <g id="text_14">
    <!-- 67% -->
    <g style="fill: #ffffff" transform="translate(205.384646 72.735927) scale(0.1 -0.1)">
     <defs>
      <path id="DejaVuSans-36" d="M 2113 2584 
Q 1688 2584 1439 2293 
Q 1191 2003 1191 1497 
Q 1191 994 1439 701 
Q 1688 409 2113 409 
Q 2538 409 2786 701 
Q 3034 994 3034 1497 
Q 3034 2003 2786 2293 
Q 2538 2584 2113 2584 
z
M 3366 4563 
L 3366 3988 
Q 3128 4100 2886 4159 
Q 2644 4219 2406 4219 
Q 1781 4219 1451 3797 
Q 1122 3375 1075 2522 
Q 1259 2794 1537 2939 
Q 1816 3084 2150 3084 
Q 2853 3084 3261 2657 
Q 3669 2231 3669 1497 
Q 3669 778 3244 343 
Q 2819 -91 2113 -91 
Q 1303 -91 875 529 
Q 447 1150 447 2328 
Q 447 3434 972 4092 
Q 1497 4750 2381 4750 
Q 2619 4750 2861 4703 
Q 3103 4656 3366 4563 
z
" transform="scale(0.015625)"/>
      <path id="DejaVuSans-37" d="M 525 4666 
L 3525 4666 
L 3525 4397 
L 1831 0 
L 1172 0 
L 2766 4134 
L 525 4134 
L 525 4666 
z
" transform="scale(0.015625)"/>
     </defs>
     <use xlink:href="#DejaVuSans-36"/>
     <use xlink:href="#DejaVuSans-37" x="63.623047"/>
     <use xlink:href="#DejaVuSans-25" x="127.246094"/>
    </g>
   </g>
   <g id="text_15">
    <!-- 21% -->
    <g transform="translate(365.493852 72.735927) scale(0.1 -0.1)">
     <use xlink:href="#DejaVuSans-32"/>
     <use xlink:href="#DejaVuSans-31" x="63.623047"/>
     <use xlink:href="#DejaVuSans-25" x="127.246094"/>
    </g>
   </g>
   <g id="text_16">
    <!-- 9% -->
    <g transform="translate(423.997388 72.735927) scale(0.1 -0.1)">
     <use xlink:href="#DejaVuSans-39"/>
     <use xlink:href="#DejaVuSans-25" x="63.623047"/>
    </g>
   </g>
   <g id="text_17">
    <!-- 63% -->
    <g style="fill: #ffffff" transform="translate(200.68406 98.804892) scale(0.1 -0.1)">
     <use xlink:href="#DejaVuSans-36"/>
     <use xlink:href="#DejaVuSans-33" x="63.623047"/>
     <use xlink:href="#DejaVuSans-25" x="127.246094"/>
    </g>
   </g>
   <g id="text_18">
    <!-- 24% -->
    <g transform="translate(360.125726 98.804892) scale(0.1 -0.1)">
     <defs>
      <path id="DejaVuSans-34" d="M 2419 4116 
L 825 1625 
L 2419 1625 
L 2419 4116 
z
M 2253 4666 
L 3047 4666 
L 3047 1625 
L 3713 1625 
L 3713 1100 
L 3047 1100 
L 3047 0 
L 2419 0 
L 2419 1100 
L 313 1100 
L 313 1709 
L 2253 4666 
z
" transform="scale(0.015625)"/>
     </defs>
     <use xlink:href="#DejaVuSans-32"/>
     <use xlink:href="#DejaVuSans-34" x="63.623047"/>
     <use xlink:href="#DejaVuSans-25" x="127.246094"/>
    </g>
   </g>
   <g id="text_19">
    <!-- 9% -->
    <g transform="translate(424.269967 98.804892) scale(0.1 -0.1)">
     <use xlink:href="#DejaVuSans-39"/>
     <use xlink:href="#DejaVuSans-25" x="63.623047"/>
    </g>
   </g>
   <g id="text_20">
    <!-- 38% -->
    <g style="fill: #ffffff" transform="translate(223.182306 124.873858) scale(0.1 -0.1)">
     <use xlink:href="#DejaVuSans-33"/>
     <use xlink:href="#DejaVuSans-38" x="63.623047"/>
     <use xlink:href="#DejaVuSans-25" x="127.246094"/>
    </g>
   </g>
   <g id="text_21">
    <!-- 31% -->
    <g transform="translate(348.102005 124.873858) scale(0.1 -0.1)">
     <use xlink:href="#DejaVuSans-33"/>
     <use xlink:href="#DejaVuSans-31" x="63.623047"/>
     <use xlink:href="#DejaVuSans-25" x="127.246094"/>
    </g>
   </g>
   <g id="text_22">
    <!-- 19% -->
    <g transform="translate(439.274334 124.873858) scale(0.1 -0.1)">
     <use xlink:href="#DejaVuSans-31"/>
     <use xlink:href="#DejaVuSans-39" x="63.623047"/>
     <use xlink:href="#DejaVuSans-25" x="127.246094"/>
    </g>
   </g>
   <g id="text_23">
    <!-- 12% -->
    <g style="fill: #ffffff" transform="translate(497.243606 124.873858) scale(0.1 -0.1)">
     <use xlink:href="#DejaVuSans-31"/>
     <use xlink:href="#DejaVuSans-32" x="63.623047"/>
     <use xlink:href="#DejaVuSans-25" x="127.246094"/>
    </g>
   </g>
   <g id="text_24">
    <!-- 65% -->
    <g style="fill: #ffffff" transform="translate(206.394092 150.942823) scale(0.1 -0.1)">
     <defs>
      <path id="DejaVuSans-35" d="M 691 4666 
L 3169 4666 
L 3169 4134 
L 1269 4134 
L 1269 2991 
Q 1406 3038 1543 3061 
Q 1681 3084 1819 3084 
Q 2600 3084 3056 2656 
Q 3513 2228 3513 1497 
Q 3513 744 3044 326 
Q 2575 -91 1722 -91 
Q 1428 -91 1123 -41 
Q 819 9 494 109 
L 494 744 
Q 775 591 1075 516 
Q 1375 441 1709 441 
Q 2250 441 2565 725 
Q 2881 1009 2881 1497 
Q 2881 1984 2565 2268 
Q 2250 2553 1709 2553 
Q 1456 2553 1204 2497 
Q 953 2441 691 2322 
L 691 4666 
z
" transform="scale(0.015625)"/>
     </defs>
     <use xlink:href="#DejaVuSans-36"/>
     <use xlink:href="#DejaVuSans-35" x="63.623047"/>
     <use xlink:href="#DejaVuSans-25" x="127.246094"/>
    </g>
   </g>
   <g id="text_25">
    <!-- 21% -->
    <g transform="translate(364.595571 150.942823) scale(0.1 -0.1)">
     <use xlink:href="#DejaVuSans-32"/>
     <use xlink:href="#DejaVuSans-31" x="63.623047"/>
     <use xlink:href="#DejaVuSans-25" x="127.246094"/>
    </g>
   </g>
   <g id="text_26">
    <!-- 10% -->
    <g transform="translate(422.031776 150.942823) scale(0.1 -0.1)">
     <use xlink:href="#DejaVuSans-31"/>
     <use xlink:href="#DejaVuSans-30" x="63.623047"/>
     <use xlink:href="#DejaVuSans-25" x="127.246094"/>
    </g>
   </g>
   <g id="text_27">
    <!-- 4% -->
    <g style="fill: #ffffff" transform="translate(449.900518 150.942823) scale(0.1 -0.1)">
     <use xlink:href="#DejaVuSans-34"/>
     <use xlink:href="#DejaVuSans-25" x="63.623047"/>
    </g>
   </g>
   <g id="text_28">
    <!-- 36% -->
    <g style="fill: #ffffff" transform="translate(222.268538 177.011789) scale(0.1 -0.1)">
     <use xlink:href="#DejaVuSans-33"/>
     <use xlink:href="#DejaVuSans-36" x="63.623047"/>
     <use xlink:href="#DejaVuSans-25" x="127.246094"/>
    </g>
   </g>
   <g id="text_29">
    <!-- 31% -->
    <g transform="translate(346.405611 177.011789) scale(0.1 -0.1)">
     <use xlink:href="#DejaVuSans-33"/>
     <use xlink:href="#DejaVuSans-31" x="63.623047"/>
     <use xlink:href="#DejaVuSans-25" x="127.246094"/>
    </g>
   </g>
   <g id="text_30">
    <!-- 20% -->
    <g transform="translate(439.587384 177.011789) scale(0.1 -0.1)">
     <use xlink:href="#DejaVuSans-32"/>
     <use xlink:href="#DejaVuSans-30" x="63.623047"/>
     <use xlink:href="#DejaVuSans-25" x="127.246094"/>
    </g>
   </g>
   <g id="text_31">
    <!-- 13% -->
    <g style="fill: #ffffff" transform="translate(498.339281 177.011789) scale(0.1 -0.1)">
     <use xlink:href="#DejaVuSans-31"/>
     <use xlink:href="#DejaVuSans-33" x="63.623047"/>
     <use xlink:href="#DejaVuSans-25" x="127.246094"/>
    </g>
   </g>
  </g>
 </g>
 <defs>
  <clipPath id="pa4933586a4">
   <rect x="76.5" y="25.92" width="474.3" height="166.32"/>
  </clipPath>
 </defs>
</svg>
