<?xml version="1.0" encoding="utf-8" standalone="no"?>
<!DOCTYPE svg PUBLIC "-//W3C//DTD SVG 1.1//EN"
  "http://www.w3.org/Graphics/SVG/1.1/DTD/svg11.dtd">
<!-- Created with matplotlib (https://matplotlib.org/) -->
<svg height="91.8795pt" version="1.1" viewBox="0 0 531.439062 91.8795" width="531.439062pt" xmlns="http://www.w3.org/2000/svg" xmlns:xlink="http://www.w3.org/1999/xlink">
 <defs>
  <style type="text/css">
*{stroke-linecap:butt;stroke-linejoin:round;}
  </style>
 </defs>
 <g id="figure_1">
  <g id="patch_1">
   <path d="M 0 91.8795 
L 531.439062 91.8795 
L 531.439062 0 
L 0 0 
z
" style="fill:#ffffff;"/>
  </g>
  <g id="axes_1">
   <g id="patch_2">
    <path d="M 49.939063 62.9355 
L 524.239063 62.9355 
L 524.239063 35.7555 
L 49.939063 35.7555 
z
" style="fill:#ffffff;"/>
   </g>
   <g id="matplotlib.axis_1">
    <g id="ytick_1">
     <g id="line2d_1">
      <defs>
       <path d="M 0 0 
L -3.5 0 
" id="m770f1d402d" style="stroke:#000000;stroke-width:0.8;"/>
      </defs>
      <g>
       <use style="stroke:#000000;stroke-width:0.8;" x="49.939063" xlink:href="#m770f1d402d" y="49.3455"/>
      </g>
     </g>
     <g id="text_1">
      <!-- Overall -->
      <defs>
       <path d="M 39.40625 66.21875 
Q 28.65625 66.21875 22.328125 58.203125 
Q 16.015625 50.203125 16.015625 36.375 
Q 16.015625 22.609375 22.328125 14.59375 
Q 28.65625 6.59375 39.40625 6.59375 
Q 50.140625 6.59375 56.421875 14.59375 
Q 62.703125 22.609375 62.703125 36.375 
Q 62.703125 50.203125 56.421875 58.203125 
Q 50.140625 66.21875 39.40625 66.21875 
z
M 39.40625 74.21875 
Q 54.734375 74.21875 63.90625 63.9375 
Q 73.09375 53.65625 73.09375 36.375 
Q 73.09375 19.140625 63.90625 8.859375 
Q 54.734375 -1.421875 39.40625 -1.421875 
Q 24.03125 -1.421875 14.8125 8.828125 
Q 5.609375 19.09375 5.609375 36.375 
Q 5.609375 53.65625 14.8125 63.9375 
Q 24.03125 74.21875 39.40625 74.21875 
z
" id="DejaVuSans-79"/>
       <path d="M 2.984375 54.6875 
L 12.5 54.6875 
L 29.59375 8.796875 
L 46.6875 54.6875 
L 56.203125 54.6875 
L 35.6875 0 
L 23.484375 0 
z
" id="DejaVuSans-118"/>
       <path d="M 56.203125 29.59375 
L 56.203125 25.203125 
L 14.890625 25.203125 
Q 15.484375 15.921875 20.484375 11.0625 
Q 25.484375 6.203125 34.421875 6.203125 
Q 39.59375 6.203125 44.453125 7.46875 
Q 49.3125 8.734375 54.109375 11.28125 
L 54.109375 2.78125 
Q 49.265625 0.734375 44.1875 -0.34375 
Q 39.109375 -1.421875 33.890625 -1.421875 
Q 20.796875 -1.421875 13.15625 6.1875 
Q 5.515625 13.8125 5.515625 26.8125 
Q 5.515625 40.234375 12.765625 48.109375 
Q 20.015625 56 32.328125 56 
Q 43.359375 56 49.78125 48.890625 
Q 56.203125 41.796875 56.203125 29.59375 
z
M 47.21875 32.234375 
Q 47.125 39.59375 43.09375 43.984375 
Q 39.0625 48.390625 32.421875 48.390625 
Q 24.90625 48.390625 20.390625 44.140625 
Q 15.875 39.890625 15.1875 32.171875 
z
" id="DejaVuSans-101"/>
       <path d="M 41.109375 46.296875 
Q 39.59375 47.171875 37.8125 47.578125 
Q 36.03125 48 33.890625 48 
Q 26.265625 48 22.1875 43.046875 
Q 18.109375 38.09375 18.109375 28.8125 
L 18.109375 0 
L 9.078125 0 
L 9.078125 54.6875 
L 18.109375 54.6875 
L 18.109375 46.1875 
Q 20.953125 51.171875 25.484375 53.578125 
Q 30.03125 56 36.53125 56 
Q 37.453125 56 38.578125 55.875 
Q 39.703125 55.765625 41.0625 55.515625 
z
" id="DejaVuSans-114"/>
       <path d="M 34.28125 27.484375 
Q 23.390625 27.484375 19.1875 25 
Q 14.984375 22.515625 14.984375 16.5 
Q 14.984375 11.71875 18.140625 8.90625 
Q 21.296875 6.109375 26.703125 6.109375 
Q 34.1875 6.109375 38.703125 11.40625 
Q 43.21875 16.703125 43.21875 25.484375 
L 43.21875 27.484375 
z
M 52.203125 31.203125 
L 52.203125 0 
L 43.21875 0 
L 43.21875 8.296875 
Q 40.140625 3.328125 35.546875 0.953125 
Q 30.953125 -1.421875 24.3125 -1.421875 
Q 15.921875 -1.421875 10.953125 3.296875 
Q 6 8.015625 6 15.921875 
Q 6 25.140625 12.171875 29.828125 
Q 18.359375 34.515625 30.609375 34.515625 
L 43.21875 34.515625 
L 43.21875 35.40625 
Q 43.21875 41.609375 39.140625 45 
Q 35.0625 48.390625 27.6875 48.390625 
Q 23 48.390625 18.546875 47.265625 
Q 14.109375 46.140625 10.015625 43.890625 
L 10.015625 52.203125 
Q 14.9375 54.109375 19.578125 55.046875 
Q 24.21875 56 28.609375 56 
Q 40.484375 56 46.34375 49.84375 
Q 52.203125 43.703125 52.203125 31.203125 
z
" id="DejaVuSans-97"/>
       <path d="M 9.421875 75.984375 
L 18.40625 75.984375 
L 18.40625 0 
L 9.421875 0 
z
" id="DejaVuSans-108"/>
      </defs>
      <g transform="translate(7.2 53.144719)scale(0.1 -0.1)">
       <use xlink:href="#DejaVuSans-79"/>
       <use x="78.710938" xlink:href="#DejaVuSans-118"/>
       <use x="137.890625" xlink:href="#DejaVuSans-101"/>
       <use x="199.414062" xlink:href="#DejaVuSans-114"/>
       <use x="240.527344" xlink:href="#DejaVuSans-97"/>
       <use x="301.806641" xlink:href="#DejaVuSans-108"/>
       <use x="329.589844" xlink:href="#DejaVuSans-108"/>
      </g>
     </g>
    </g>
   </g>
   <g id="patch_3">
    <path clip-path="url(#p1e8d879bd3)" d="M 49.939063 36.990955 
L 71.498153 36.990955 
L 71.498153 61.700045 
L 49.939063 61.700045 
z
" style="fill:#ffffff;"/>
   </g>
   <g id="patch_4">
    <path d="M 49.939063 62.9355 
L 49.939063 35.7555 
" style="fill:none;stroke:#000000;stroke-linecap:square;stroke-linejoin:miter;stroke-width:0.8;"/>
   </g>
   <g id="patch_5">
    <path d="M 524.239063 62.9355 
L 524.239063 35.7555 
" style="fill:none;stroke:#000000;stroke-linecap:square;stroke-linejoin:miter;stroke-width:0.8;"/>
   </g>
   <g id="patch_6">
    <path d="M 49.939063 62.9355 
L 524.239063 62.9355 
" style="fill:none;stroke:#000000;stroke-linecap:square;stroke-linejoin:miter;stroke-width:0.8;"/>
   </g>
   <g id="patch_7">
    <path d="M 49.939063 35.7555 
L 524.239063 35.7555 
" style="fill:none;stroke:#000000;stroke-linecap:square;stroke-linejoin:miter;stroke-width:0.8;"/>
   </g>
   <g id="patch_8">
    <path clip-path="url(#p1e8d879bd3)" d="M 71.498153 36.990955 
L 247.931632 36.990955 
L 247.931632 61.700045 
L 71.498153 61.700045 
z
" style="fill:#d65244;"/>
   </g>
   <g id="patch_9">
    <path clip-path="url(#p1e8d879bd3)" d="M 247.931632 36.990955 
L 315.894528 36.990955 
L 315.894528 61.700045 
L 247.931632 61.700045 
z
" style="fill:#f5c1a9;"/>
   </g>
   <g id="patch_10">
    <path clip-path="url(#p1e8d879bd3)" d="M 315.894528 36.990955 
L 389.258449 36.990955 
L 389.258449 61.700045 
L 315.894528 61.700045 
z
" style="fill:#b5cdfa;"/>
   </g>
   <g id="patch_11">
    <path clip-path="url(#p1e8d879bd3)" d="M 389.258449 36.990955 
L 502.679972 36.990955 
L 502.679972 61.700045 
L 389.258449 61.700045 
z
" style="fill:#5977e3;"/>
   </g>
   <g id="text_2">
    <!-- Training for independent execution of advanced endoscopy techniques -->
    <defs>
     <path d="M -0.296875 72.90625 
L 61.375 72.90625 
L 61.375 64.59375 
L 35.5 64.59375 
L 35.5 0 
L 25.59375 0 
L 25.59375 64.59375 
L -0.296875 64.59375 
z
" id="DejaVuSans-84"/>
     <path d="M 9.421875 54.6875 
L 18.40625 54.6875 
L 18.40625 0 
L 9.421875 0 
z
M 9.421875 75.984375 
L 18.40625 75.984375 
L 18.40625 64.59375 
L 9.421875 64.59375 
z
" id="DejaVuSans-105"/>
     <path d="M 54.890625 33.015625 
L 54.890625 0 
L 45.90625 0 
L 45.90625 32.71875 
Q 45.90625 40.484375 42.875 44.328125 
Q 39.84375 48.1875 33.796875 48.1875 
Q 26.515625 48.1875 22.3125 43.546875 
Q 18.109375 38.921875 18.109375 30.90625 
L 18.109375 0 
L 9.078125 0 
L 9.078125 54.6875 
L 18.109375 54.6875 
L 18.109375 46.1875 
Q 21.34375 51.125 25.703125 53.5625 
Q 30.078125 56 35.796875 56 
Q 45.21875 56 50.046875 50.171875 
Q 54.890625 44.34375 54.890625 33.015625 
z
" id="DejaVuSans-110"/>
     <path d="M 45.40625 27.984375 
Q 45.40625 37.75 41.375 43.109375 
Q 37.359375 48.484375 30.078125 48.484375 
Q 22.859375 48.484375 18.828125 43.109375 
Q 14.796875 37.75 14.796875 27.984375 
Q 14.796875 18.265625 18.828125 12.890625 
Q 22.859375 7.515625 30.078125 7.515625 
Q 37.359375 7.515625 41.375 12.890625 
Q 45.40625 18.265625 45.40625 27.984375 
z
M 54.390625 6.78125 
Q 54.390625 -7.171875 48.1875 -13.984375 
Q 42 -20.796875 29.203125 -20.796875 
Q 24.46875 -20.796875 20.265625 -20.09375 
Q 16.0625 -19.390625 12.109375 -17.921875 
L 12.109375 -9.1875 
Q 16.0625 -11.328125 19.921875 -12.34375 
Q 23.78125 -13.375 27.78125 -13.375 
Q 36.625 -13.375 41.015625 -8.765625 
Q 45.40625 -4.15625 45.40625 5.171875 
L 45.40625 9.625 
Q 42.625 4.78125 38.28125 2.390625 
Q 33.9375 0 27.875 0 
Q 17.828125 0 11.671875 7.65625 
Q 5.515625 15.328125 5.515625 27.984375 
Q 5.515625 40.671875 11.671875 48.328125 
Q 17.828125 56 27.875 56 
Q 33.9375 56 38.28125 53.609375 
Q 42.625 51.21875 45.40625 46.390625 
L 45.40625 54.6875 
L 54.390625 54.6875 
z
" id="DejaVuSans-103"/>
     <path id="DejaVuSans-32"/>
     <path d="M 37.109375 75.984375 
L 37.109375 68.5 
L 28.515625 68.5 
Q 23.6875 68.5 21.796875 66.546875 
Q 19.921875 64.59375 19.921875 59.515625 
L 19.921875 54.6875 
L 34.71875 54.6875 
L 34.71875 47.703125 
L 19.921875 47.703125 
L 19.921875 0 
L 10.890625 0 
L 10.890625 47.703125 
L 2.296875 47.703125 
L 2.296875 54.6875 
L 10.890625 54.6875 
L 10.890625 58.5 
Q 10.890625 67.625 15.140625 71.796875 
Q 19.390625 75.984375 28.609375 75.984375 
z
" id="DejaVuSans-102"/>
     <path d="M 30.609375 48.390625 
Q 23.390625 48.390625 19.1875 42.75 
Q 14.984375 37.109375 14.984375 27.296875 
Q 14.984375 17.484375 19.15625 11.84375 
Q 23.34375 6.203125 30.609375 6.203125 
Q 37.796875 6.203125 41.984375 11.859375 
Q 46.1875 17.53125 46.1875 27.296875 
Q 46.1875 37.015625 41.984375 42.703125 
Q 37.796875 48.390625 30.609375 48.390625 
z
M 30.609375 56 
Q 42.328125 56 49.015625 48.375 
Q 55.71875 40.765625 55.71875 27.296875 
Q 55.71875 13.875 49.015625 6.21875 
Q 42.328125 -1.421875 30.609375 -1.421875 
Q 18.84375 -1.421875 12.171875 6.21875 
Q 5.515625 13.875 5.515625 27.296875 
Q 5.515625 40.765625 12.171875 48.375 
Q 18.84375 56 30.609375 56 
z
" id="DejaVuSans-111"/>
     <path d="M 45.40625 46.390625 
L 45.40625 75.984375 
L 54.390625 75.984375 
L 54.390625 0 
L 45.40625 0 
L 45.40625 8.203125 
Q 42.578125 3.328125 38.25 0.953125 
Q 33.9375 -1.421875 27.875 -1.421875 
Q 17.96875 -1.421875 11.734375 6.484375 
Q 5.515625 14.40625 5.515625 27.296875 
Q 5.515625 40.1875 11.734375 48.09375 
Q 17.96875 56 27.875 56 
Q 33.9375 56 38.25 53.625 
Q 42.578125 51.265625 45.40625 46.390625 
z
M 14.796875 27.296875 
Q 14.796875 17.390625 18.875 11.75 
Q 22.953125 6.109375 30.078125 6.109375 
Q 37.203125 6.109375 41.296875 11.75 
Q 45.40625 17.390625 45.40625 27.296875 
Q 45.40625 37.203125 41.296875 42.84375 
Q 37.203125 48.484375 30.078125 48.484375 
Q 22.953125 48.484375 18.875 42.84375 
Q 14.796875 37.203125 14.796875 27.296875 
z
" id="DejaVuSans-100"/>
     <path d="M 18.109375 8.203125 
L 18.109375 -20.796875 
L 9.078125 -20.796875 
L 9.078125 54.6875 
L 18.109375 54.6875 
L 18.109375 46.390625 
Q 20.953125 51.265625 25.265625 53.625 
Q 29.59375 56 35.59375 56 
Q 45.5625 56 51.78125 48.09375 
Q 58.015625 40.1875 58.015625 27.296875 
Q 58.015625 14.40625 51.78125 6.484375 
Q 45.5625 -1.421875 35.59375 -1.421875 
Q 29.59375 -1.421875 25.265625 0.953125 
Q 20.953125 3.328125 18.109375 8.203125 
z
M 48.6875 27.296875 
Q 48.6875 37.203125 44.609375 42.84375 
Q 40.53125 48.484375 33.40625 48.484375 
Q 26.265625 48.484375 22.1875 42.84375 
Q 18.109375 37.203125 18.109375 27.296875 
Q 18.109375 17.390625 22.1875 11.75 
Q 26.265625 6.109375 33.40625 6.109375 
Q 40.53125 6.109375 44.609375 11.75 
Q 48.6875 17.390625 48.6875 27.296875 
z
" id="DejaVuSans-112"/>
     <path d="M 18.3125 70.21875 
L 18.3125 54.6875 
L 36.8125 54.6875 
L 36.8125 47.703125 
L 18.3125 47.703125 
L 18.3125 18.015625 
Q 18.3125 11.328125 20.140625 9.421875 
Q 21.96875 7.515625 27.59375 7.515625 
L 36.8125 7.515625 
L 36.8125 0 
L 27.59375 0 
Q 17.1875 0 13.234375 3.875 
Q 9.28125 7.765625 9.28125 18.015625 
L 9.28125 47.703125 
L 2.6875 47.703125 
L 2.6875 54.6875 
L 9.28125 54.6875 
L 9.28125 70.21875 
z
" id="DejaVuSans-116"/>
     <path d="M 54.890625 54.6875 
L 35.109375 28.078125 
L 55.90625 0 
L 45.3125 0 
L 29.390625 21.484375 
L 13.484375 0 
L 2.875 0 
L 24.125 28.609375 
L 4.6875 54.6875 
L 15.28125 54.6875 
L 29.78125 35.203125 
L 44.28125 54.6875 
z
" id="DejaVuSans-120"/>
     <path d="M 48.78125 52.59375 
L 48.78125 44.1875 
Q 44.96875 46.296875 41.140625 47.34375 
Q 37.3125 48.390625 33.40625 48.390625 
Q 24.65625 48.390625 19.8125 42.84375 
Q 14.984375 37.3125 14.984375 27.296875 
Q 14.984375 17.28125 19.8125 11.734375 
Q 24.65625 6.203125 33.40625 6.203125 
Q 37.3125 6.203125 41.140625 7.25 
Q 44.96875 8.296875 48.78125 10.40625 
L 48.78125 2.09375 
Q 45.015625 0.34375 40.984375 -0.53125 
Q 36.96875 -1.421875 32.421875 -1.421875 
Q 20.0625 -1.421875 12.78125 6.34375 
Q 5.515625 14.109375 5.515625 27.296875 
Q 5.515625 40.671875 12.859375 48.328125 
Q 20.21875 56 33.015625 56 
Q 37.15625 56 41.109375 55.140625 
Q 45.0625 54.296875 48.78125 52.59375 
z
" id="DejaVuSans-99"/>
     <path d="M 8.5 21.578125 
L 8.5 54.6875 
L 17.484375 54.6875 
L 17.484375 21.921875 
Q 17.484375 14.15625 20.5 10.265625 
Q 23.53125 6.390625 29.59375 6.390625 
Q 36.859375 6.390625 41.078125 11.03125 
Q 45.3125 15.671875 45.3125 23.6875 
L 45.3125 54.6875 
L 54.296875 54.6875 
L 54.296875 0 
L 45.3125 0 
L 45.3125 8.40625 
Q 42.046875 3.421875 37.71875 1 
Q 33.40625 -1.421875 27.6875 -1.421875 
Q 18.265625 -1.421875 13.375 4.4375 
Q 8.5 10.296875 8.5 21.578125 
z
M 31.109375 56 
z
" id="DejaVuSans-117"/>
     <path d="M 44.28125 53.078125 
L 44.28125 44.578125 
Q 40.484375 46.53125 36.375 47.5 
Q 32.28125 48.484375 27.875 48.484375 
Q 21.1875 48.484375 17.84375 46.4375 
Q 14.5 44.390625 14.5 40.28125 
Q 14.5 37.15625 16.890625 35.375 
Q 19.28125 33.59375 26.515625 31.984375 
L 29.59375 31.296875 
Q 39.15625 29.25 43.1875 25.515625 
Q 47.21875 21.78125 47.21875 15.09375 
Q 47.21875 7.46875 41.1875 3.015625 
Q 35.15625 -1.421875 24.609375 -1.421875 
Q 20.21875 -1.421875 15.453125 -0.5625 
Q 10.6875 0.296875 5.421875 2 
L 5.421875 11.28125 
Q 10.40625 8.6875 15.234375 7.390625 
Q 20.0625 6.109375 24.8125 6.109375 
Q 31.15625 6.109375 34.5625 8.28125 
Q 37.984375 10.453125 37.984375 14.40625 
Q 37.984375 18.0625 35.515625 20.015625 
Q 33.0625 21.96875 24.703125 23.78125 
L 21.578125 24.515625 
Q 13.234375 26.265625 9.515625 29.90625 
Q 5.8125 33.546875 5.8125 39.890625 
Q 5.8125 47.609375 11.28125 51.796875 
Q 16.75 56 26.8125 56 
Q 31.78125 56 36.171875 55.265625 
Q 40.578125 54.546875 44.28125 53.078125 
z
" id="DejaVuSans-115"/>
     <path d="M 32.171875 -5.078125 
Q 28.375 -14.84375 24.75 -17.8125 
Q 21.140625 -20.796875 15.09375 -20.796875 
L 7.90625 -20.796875 
L 7.90625 -13.28125 
L 13.1875 -13.28125 
Q 16.890625 -13.28125 18.9375 -11.515625 
Q 21 -9.765625 23.484375 -3.21875 
L 25.09375 0.875 
L 2.984375 54.6875 
L 12.5 54.6875 
L 29.59375 11.921875 
L 46.6875 54.6875 
L 56.203125 54.6875 
z
" id="DejaVuSans-121"/>
     <path d="M 54.890625 33.015625 
L 54.890625 0 
L 45.90625 0 
L 45.90625 32.71875 
Q 45.90625 40.484375 42.875 44.328125 
Q 39.84375 48.1875 33.796875 48.1875 
Q 26.515625 48.1875 22.3125 43.546875 
Q 18.109375 38.921875 18.109375 30.90625 
L 18.109375 0 
L 9.078125 0 
L 9.078125 75.984375 
L 18.109375 75.984375 
L 18.109375 46.1875 
Q 21.34375 51.125 25.703125 53.5625 
Q 30.078125 56 35.796875 56 
Q 45.21875 56 50.046875 50.171875 
Q 54.890625 44.34375 54.890625 33.015625 
z
" id="DejaVuSans-104"/>
     <path d="M 14.796875 27.296875 
Q 14.796875 17.390625 18.875 11.75 
Q 22.953125 6.109375 30.078125 6.109375 
Q 37.203125 6.109375 41.296875 11.75 
Q 45.40625 17.390625 45.40625 27.296875 
Q 45.40625 37.203125 41.296875 42.84375 
Q 37.203125 48.484375 30.078125 48.484375 
Q 22.953125 48.484375 18.875 42.84375 
Q 14.796875 37.203125 14.796875 27.296875 
z
M 45.40625 8.203125 
Q 42.578125 3.328125 38.25 0.953125 
Q 33.9375 -1.421875 27.875 -1.421875 
Q 17.96875 -1.421875 11.734375 6.484375 
Q 5.515625 14.40625 5.515625 27.296875 
Q 5.515625 40.1875 11.734375 48.09375 
Q 17.96875 56 27.875 56 
Q 33.9375 56 38.25 53.625 
Q 42.578125 51.265625 45.40625 46.390625 
L 45.40625 54.6875 
L 54.390625 54.6875 
L 54.390625 -20.796875 
L 45.40625 -20.796875 
z
" id="DejaVuSans-113"/>
    </defs>
    <g transform="translate(74.07875 16.318125)scale(0.12 -0.12)">
     <use xlink:href="#DejaVuSans-84"/>
     <use x="46.333984" xlink:href="#DejaVuSans-114"/>
     <use x="87.447266" xlink:href="#DejaVuSans-97"/>
     <use x="148.726562" xlink:href="#DejaVuSans-105"/>
     <use x="176.509766" xlink:href="#DejaVuSans-110"/>
     <use x="239.888672" xlink:href="#DejaVuSans-105"/>
     <use x="267.671875" xlink:href="#DejaVuSans-110"/>
     <use x="331.050781" xlink:href="#DejaVuSans-103"/>
     <use x="394.527344" xlink:href="#DejaVuSans-32"/>
     <use x="426.314453" xlink:href="#DejaVuSans-102"/>
     <use x="461.519531" xlink:href="#DejaVuSans-111"/>
     <use x="522.701172" xlink:href="#DejaVuSans-114"/>
     <use x="563.814453" xlink:href="#DejaVuSans-32"/>
     <use x="595.601562" xlink:href="#DejaVuSans-105"/>
     <use x="623.384766" xlink:href="#DejaVuSans-110"/>
     <use x="686.763672" xlink:href="#DejaVuSans-100"/>
     <use x="750.240234" xlink:href="#DejaVuSans-101"/>
     <use x="811.763672" xlink:href="#DejaVuSans-112"/>
     <use x="875.240234" xlink:href="#DejaVuSans-101"/>
     <use x="936.763672" xlink:href="#DejaVuSans-110"/>
     <use x="1000.142578" xlink:href="#DejaVuSans-100"/>
     <use x="1063.619141" xlink:href="#DejaVuSans-101"/>
     <use x="1125.142578" xlink:href="#DejaVuSans-110"/>
     <use x="1188.521484" xlink:href="#DejaVuSans-116"/>
     <use x="1227.730469" xlink:href="#DejaVuSans-32"/>
     <use x="1259.517578" xlink:href="#DejaVuSans-101"/>
     <use x="1319.291016" xlink:href="#DejaVuSans-120"/>
     <use x="1375.345703" xlink:href="#DejaVuSans-101"/>
     <use x="1436.869141" xlink:href="#DejaVuSans-99"/>
     <use x="1491.849609" xlink:href="#DejaVuSans-117"/>
     <use x="1555.228516" xlink:href="#DejaVuSans-116"/>
     <use x="1594.4375" xlink:href="#DejaVuSans-105"/>
     <use x="1622.220703" xlink:href="#DejaVuSans-111"/>
     <use x="1683.402344" xlink:href="#DejaVuSans-110"/>
     <use x="1746.78125" xlink:href="#DejaVuSans-32"/>
     <use x="1778.568359" xlink:href="#DejaVuSans-111"/>
     <use x="1839.75" xlink:href="#DejaVuSans-102"/>
     <use x="1874.955078" xlink:href="#DejaVuSans-32"/>
     <use x="1906.742188" xlink:href="#DejaVuSans-97"/>
     <use x="1968.021484" xlink:href="#DejaVuSans-100"/>
     <use x="2031.498047" xlink:href="#DejaVuSans-118"/>
     <use x="2090.677734" xlink:href="#DejaVuSans-97"/>
     <use x="2151.957031" xlink:href="#DejaVuSans-110"/>
     <use x="2215.335938" xlink:href="#DejaVuSans-99"/>
     <use x="2270.316406" xlink:href="#DejaVuSans-101"/>
     <use x="2331.839844" xlink:href="#DejaVuSans-100"/>
     <use x="2395.316406" xlink:href="#DejaVuSans-32"/>
     <use x="2427.103516" xlink:href="#DejaVuSans-101"/>
     <use x="2488.626953" xlink:href="#DejaVuSans-110"/>
     <use x="2552.005859" xlink:href="#DejaVuSans-100"/>
     <use x="2615.482422" xlink:href="#DejaVuSans-111"/>
     <use x="2676.664062" xlink:href="#DejaVuSans-115"/>
     <use x="2728.763672" xlink:href="#DejaVuSans-99"/>
     <use x="2783.744141" xlink:href="#DejaVuSans-111"/>
     <use x="2844.925781" xlink:href="#DejaVuSans-112"/>
     <use x="2908.402344" xlink:href="#DejaVuSans-121"/>
     <use x="2967.582031" xlink:href="#DejaVuSans-32"/>
     <use x="2999.369141" xlink:href="#DejaVuSans-116"/>
     <use x="3038.578125" xlink:href="#DejaVuSans-101"/>
     <use x="3100.101562" xlink:href="#DejaVuSans-99"/>
     <use x="3155.082031" xlink:href="#DejaVuSans-104"/>
     <use x="3218.460938" xlink:href="#DejaVuSans-110"/>
     <use x="3281.839844" xlink:href="#DejaVuSans-105"/>
     <use x="3309.623047" xlink:href="#DejaVuSans-113"/>
     <use x="3373.099609" xlink:href="#DejaVuSans-117"/>
     <use x="3436.478516" xlink:href="#DejaVuSans-101"/>
     <use x="3498.001953" xlink:href="#DejaVuSans-115"/>
    </g>
    <!-- (ERCP, PTBD) should be part of the training for… -->
    <defs>
     <path d="M 31 75.875 
Q 24.46875 64.65625 21.28125 53.65625 
Q 18.109375 42.671875 18.109375 31.390625 
Q 18.109375 20.125 21.3125 9.0625 
Q 24.515625 -2 31 -13.1875 
L 23.1875 -13.1875 
Q 15.875 -1.703125 12.234375 9.375 
Q 8.59375 20.453125 8.59375 31.390625 
Q 8.59375 42.28125 12.203125 53.3125 
Q 15.828125 64.359375 23.1875 75.875 
z
" id="DejaVuSans-40"/>
     <path d="M 9.8125 72.90625 
L 55.90625 72.90625 
L 55.90625 64.59375 
L 19.671875 64.59375 
L 19.671875 43.015625 
L 54.390625 43.015625 
L 54.390625 34.71875 
L 19.671875 34.71875 
L 19.671875 8.296875 
L 56.78125 8.296875 
L 56.78125 0 
L 9.8125 0 
z
" id="DejaVuSans-69"/>
     <path d="M 44.390625 34.1875 
Q 47.5625 33.109375 50.5625 29.59375 
Q 53.5625 26.078125 56.59375 19.921875 
L 66.609375 0 
L 56 0 
L 46.6875 18.703125 
Q 43.0625 26.03125 39.671875 28.421875 
Q 36.28125 30.8125 30.421875 30.8125 
L 19.671875 30.8125 
L 19.671875 0 
L 9.8125 0 
L 9.8125 72.90625 
L 32.078125 72.90625 
Q 44.578125 72.90625 50.734375 67.671875 
Q 56.890625 62.453125 56.890625 51.90625 
Q 56.890625 45.015625 53.6875 40.46875 
Q 50.484375 35.9375 44.390625 34.1875 
z
M 19.671875 64.796875 
L 19.671875 38.921875 
L 32.078125 38.921875 
Q 39.203125 38.921875 42.84375 42.21875 
Q 46.484375 45.515625 46.484375 51.90625 
Q 46.484375 58.296875 42.84375 61.546875 
Q 39.203125 64.796875 32.078125 64.796875 
z
" id="DejaVuSans-82"/>
     <path d="M 64.40625 67.28125 
L 64.40625 56.890625 
Q 59.421875 61.53125 53.78125 63.8125 
Q 48.140625 66.109375 41.796875 66.109375 
Q 29.296875 66.109375 22.65625 58.46875 
Q 16.015625 50.828125 16.015625 36.375 
Q 16.015625 21.96875 22.65625 14.328125 
Q 29.296875 6.6875 41.796875 6.6875 
Q 48.140625 6.6875 53.78125 8.984375 
Q 59.421875 11.28125 64.40625 15.921875 
L 64.40625 5.609375 
Q 59.234375 2.09375 53.4375 0.328125 
Q 47.65625 -1.421875 41.21875 -1.421875 
Q 24.65625 -1.421875 15.125 8.703125 
Q 5.609375 18.84375 5.609375 36.375 
Q 5.609375 53.953125 15.125 64.078125 
Q 24.65625 74.21875 41.21875 74.21875 
Q 47.75 74.21875 53.53125 72.484375 
Q 59.328125 70.75 64.40625 67.28125 
z
" id="DejaVuSans-67"/>
     <path d="M 19.671875 64.796875 
L 19.671875 37.40625 
L 32.078125 37.40625 
Q 38.96875 37.40625 42.71875 40.96875 
Q 46.484375 44.53125 46.484375 51.125 
Q 46.484375 57.671875 42.71875 61.234375 
Q 38.96875 64.796875 32.078125 64.796875 
z
M 9.8125 72.90625 
L 32.078125 72.90625 
Q 44.34375 72.90625 50.609375 67.359375 
Q 56.890625 61.8125 56.890625 51.125 
Q 56.890625 40.328125 50.609375 34.8125 
Q 44.34375 29.296875 32.078125 29.296875 
L 19.671875 29.296875 
L 19.671875 0 
L 9.8125 0 
z
" id="DejaVuSans-80"/>
     <path d="M 11.71875 12.40625 
L 22.015625 12.40625 
L 22.015625 4 
L 14.015625 -11.625 
L 7.71875 -11.625 
L 11.71875 4 
z
" id="DejaVuSans-44"/>
     <path d="M 19.671875 34.8125 
L 19.671875 8.109375 
L 35.5 8.109375 
Q 43.453125 8.109375 47.28125 11.40625 
Q 51.125 14.703125 51.125 21.484375 
Q 51.125 28.328125 47.28125 31.5625 
Q 43.453125 34.8125 35.5 34.8125 
z
M 19.671875 64.796875 
L 19.671875 42.828125 
L 34.28125 42.828125 
Q 41.5 42.828125 45.03125 45.53125 
Q 48.578125 48.25 48.578125 53.8125 
Q 48.578125 59.328125 45.03125 62.0625 
Q 41.5 64.796875 34.28125 64.796875 
z
M 9.8125 72.90625 
L 35.015625 72.90625 
Q 46.296875 72.90625 52.390625 68.21875 
Q 58.5 63.53125 58.5 54.890625 
Q 58.5 48.1875 55.375 44.234375 
Q 52.25 40.28125 46.1875 39.3125 
Q 53.46875 37.75 57.5 32.78125 
Q 61.53125 27.828125 61.53125 20.40625 
Q 61.53125 10.640625 54.890625 5.3125 
Q 48.25 0 35.984375 0 
L 9.8125 0 
z
" id="DejaVuSans-66"/>
     <path d="M 19.671875 64.796875 
L 19.671875 8.109375 
L 31.59375 8.109375 
Q 46.6875 8.109375 53.6875 14.9375 
Q 60.6875 21.78125 60.6875 36.53125 
Q 60.6875 51.171875 53.6875 57.984375 
Q 46.6875 64.796875 31.59375 64.796875 
z
M 9.8125 72.90625 
L 30.078125 72.90625 
Q 51.265625 72.90625 61.171875 64.09375 
Q 71.09375 55.28125 71.09375 36.53125 
Q 71.09375 17.671875 61.125 8.828125 
Q 51.171875 0 30.078125 0 
L 9.8125 0 
z
" id="DejaVuSans-68"/>
     <path d="M 8.015625 75.875 
L 15.828125 75.875 
Q 23.140625 64.359375 26.78125 53.3125 
Q 30.421875 42.28125 30.421875 31.390625 
Q 30.421875 20.453125 26.78125 9.375 
Q 23.140625 -1.703125 15.828125 -13.1875 
L 8.015625 -13.1875 
Q 14.5 -2 17.703125 9.0625 
Q 20.90625 20.125 20.90625 31.390625 
Q 20.90625 42.671875 17.703125 53.65625 
Q 14.5 64.65625 8.015625 75.875 
z
" id="DejaVuSans-41"/>
     <path d="M 48.6875 27.296875 
Q 48.6875 37.203125 44.609375 42.84375 
Q 40.53125 48.484375 33.40625 48.484375 
Q 26.265625 48.484375 22.1875 42.84375 
Q 18.109375 37.203125 18.109375 27.296875 
Q 18.109375 17.390625 22.1875 11.75 
Q 26.265625 6.109375 33.40625 6.109375 
Q 40.53125 6.109375 44.609375 11.75 
Q 48.6875 17.390625 48.6875 27.296875 
z
M 18.109375 46.390625 
Q 20.953125 51.265625 25.265625 53.625 
Q 29.59375 56 35.59375 56 
Q 45.5625 56 51.78125 48.09375 
Q 58.015625 40.1875 58.015625 27.296875 
Q 58.015625 14.40625 51.78125 6.484375 
Q 45.5625 -1.421875 35.59375 -1.421875 
Q 29.59375 -1.421875 25.265625 0.953125 
Q 20.953125 3.328125 18.109375 8.203125 
L 18.109375 0 
L 9.078125 0 
L 9.078125 75.984375 
L 18.109375 75.984375 
z
" id="DejaVuSans-98"/>
     <path d="M 44.828125 12.40625 
L 55.171875 12.40625 
L 55.171875 0 
L 44.828125 0 
z
M 78.078125 12.40625 
L 88.484375 12.40625 
L 88.484375 0 
L 78.078125 0 
z
M 11.53125 12.40625 
L 21.921875 12.40625 
L 21.921875 0 
L 11.53125 0 
z
" id="DejaVuSans-8230"/>
    </defs>
    <g transform="translate(140.951563 29.7555)scale(0.12 -0.12)">
     <use xlink:href="#DejaVuSans-40"/>
     <use x="39.013672" xlink:href="#DejaVuSans-69"/>
     <use x="102.197266" xlink:href="#DejaVuSans-82"/>
     <use x="166.679688" xlink:href="#DejaVuSans-67"/>
     <use x="236.503906" xlink:href="#DejaVuSans-80"/>
     <use x="296.806641" xlink:href="#DejaVuSans-44"/>
     <use x="328.59375" xlink:href="#DejaVuSans-32"/>
     <use x="360.380859" xlink:href="#DejaVuSans-80"/>
     <use x="420.683594" xlink:href="#DejaVuSans-84"/>
     <use x="481.767578" xlink:href="#DejaVuSans-66"/>
     <use x="550.371094" xlink:href="#DejaVuSans-68"/>
     <use x="627.373047" xlink:href="#DejaVuSans-41"/>
     <use x="666.386719" xlink:href="#DejaVuSans-32"/>
     <use x="698.173828" xlink:href="#DejaVuSans-115"/>
     <use x="750.273438" xlink:href="#DejaVuSans-104"/>
     <use x="813.652344" xlink:href="#DejaVuSans-111"/>
     <use x="874.833984" xlink:href="#DejaVuSans-117"/>
     <use x="938.212891" xlink:href="#DejaVuSans-108"/>
     <use x="965.996094" xlink:href="#DejaVuSans-100"/>
     <use x="1029.472656" xlink:href="#DejaVuSans-32"/>
     <use x="1061.259766" xlink:href="#DejaVuSans-98"/>
     <use x="1124.736328" xlink:href="#DejaVuSans-101"/>
     <use x="1186.259766" xlink:href="#DejaVuSans-32"/>
     <use x="1218.046875" xlink:href="#DejaVuSans-112"/>
     <use x="1281.523438" xlink:href="#DejaVuSans-97"/>
     <use x="1342.802734" xlink:href="#DejaVuSans-114"/>
     <use x="1383.916016" xlink:href="#DejaVuSans-116"/>
     <use x="1423.125" xlink:href="#DejaVuSans-32"/>
     <use x="1454.912109" xlink:href="#DejaVuSans-111"/>
     <use x="1516.09375" xlink:href="#DejaVuSans-102"/>
     <use x="1551.298828" xlink:href="#DejaVuSans-32"/>
     <use x="1583.085938" xlink:href="#DejaVuSans-116"/>
     <use x="1622.294922" xlink:href="#DejaVuSans-104"/>
     <use x="1685.673828" xlink:href="#DejaVuSans-101"/>
     <use x="1747.197266" xlink:href="#DejaVuSans-32"/>
     <use x="1778.984375" xlink:href="#DejaVuSans-116"/>
     <use x="1818.193359" xlink:href="#DejaVuSans-114"/>
     <use x="1859.306641" xlink:href="#DejaVuSans-97"/>
     <use x="1920.585938" xlink:href="#DejaVuSans-105"/>
     <use x="1948.369141" xlink:href="#DejaVuSans-110"/>
     <use x="2011.748047" xlink:href="#DejaVuSans-105"/>
     <use x="2039.53125" xlink:href="#DejaVuSans-110"/>
     <use x="2102.910156" xlink:href="#DejaVuSans-103"/>
     <use x="2166.386719" xlink:href="#DejaVuSans-32"/>
     <use x="2198.173828" xlink:href="#DejaVuSans-102"/>
     <use x="2233.378906" xlink:href="#DejaVuSans-111"/>
     <use x="2294.560547" xlink:href="#DejaVuSans-114"/>
     <use x="2335.673828" xlink:href="#DejaVuSans-8230"/>
    </g>
   </g>
   <g id="legend_1">
    <g id="patch_12">
     <path d="M 56.348063 84.6795 
L 518.986063 84.6795 
Q 520.652063 84.6795 520.652063 83.0135 
L 520.652063 71.619622 
Q 520.652063 69.953622 518.986063 69.953622 
L 56.348063 69.953622 
Q 54.682063 69.953622 54.682063 71.619622 
L 54.682063 83.0135 
Q 54.682063 84.6795 56.348063 84.6795 
z
" style="fill:#ffffff;opacity:0.8;stroke:#cccccc;stroke-linejoin:miter;"/>
    </g>
    <g id="patch_13">
     <path d="M 58.014063 79.61512 
L 74.674063 79.61512 
L 74.674063 73.78412 
L 58.014063 73.78412 
z
" style="fill:#d65244;"/>
    </g>
    <g id="text_3">
     <!-- certification in gastroenterology. -->
     <defs>
      <path d="M 10.6875 12.40625 
L 21 12.40625 
L 21 0 
L 10.6875 0 
z
" id="DejaVuSans-46"/>
     </defs>
     <g transform="translate(81.338063 79.61512)scale(0.0833 -0.0833)">
      <use xlink:href="#DejaVuSans-99"/>
      <use x="54.980469" xlink:href="#DejaVuSans-101"/>
      <use x="116.503906" xlink:href="#DejaVuSans-114"/>
      <use x="157.617188" xlink:href="#DejaVuSans-116"/>
      <use x="196.826172" xlink:href="#DejaVuSans-105"/>
      <use x="224.609375" xlink:href="#DejaVuSans-102"/>
      <use x="259.814453" xlink:href="#DejaVuSans-105"/>
      <use x="287.597656" xlink:href="#DejaVuSans-99"/>
      <use x="342.578125" xlink:href="#DejaVuSans-97"/>
      <use x="403.857422" xlink:href="#DejaVuSans-116"/>
      <use x="443.066406" xlink:href="#DejaVuSans-105"/>
      <use x="470.849609" xlink:href="#DejaVuSans-111"/>
      <use x="532.03125" xlink:href="#DejaVuSans-110"/>
      <use x="595.410156" xlink:href="#DejaVuSans-32"/>
      <use x="627.197266" xlink:href="#DejaVuSans-105"/>
      <use x="654.980469" xlink:href="#DejaVuSans-110"/>
      <use x="718.359375" xlink:href="#DejaVuSans-32"/>
      <use x="750.146484" xlink:href="#DejaVuSans-103"/>
      <use x="813.623047" xlink:href="#DejaVuSans-97"/>
      <use x="874.902344" xlink:href="#DejaVuSans-115"/>
      <use x="927.001953" xlink:href="#DejaVuSans-116"/>
      <use x="966.210938" xlink:href="#DejaVuSans-114"/>
      <use x="1005.074219" xlink:href="#DejaVuSans-111"/>
      <use x="1066.255859" xlink:href="#DejaVuSans-101"/>
      <use x="1127.779297" xlink:href="#DejaVuSans-110"/>
      <use x="1191.158203" xlink:href="#DejaVuSans-116"/>
      <use x="1230.367188" xlink:href="#DejaVuSans-101"/>
      <use x="1291.890625" xlink:href="#DejaVuSans-114"/>
      <use x="1330.753906" xlink:href="#DejaVuSans-111"/>
      <use x="1391.935547" xlink:href="#DejaVuSans-108"/>
      <use x="1419.71875" xlink:href="#DejaVuSans-111"/>
      <use x="1480.900391" xlink:href="#DejaVuSans-103"/>
      <use x="1544.376953" xlink:href="#DejaVuSans-121"/>
      <use x="1589.306641" xlink:href="#DejaVuSans-46"/>
     </g>
    </g>
    <g id="patch_14">
     <path d="M 257.286097 79.61512 
L 273.946097 79.61512 
L 273.946097 73.78412 
L 257.286097 73.78412 
z
" style="fill:#5977e3;"/>
    </g>
    <g id="text_4">
     <!-- a new additional designation ‘interventional endoscopy’. -->
     <defs>
      <path d="M 4.203125 54.6875 
L 13.1875 54.6875 
L 24.421875 12.015625 
L 35.59375 54.6875 
L 46.1875 54.6875 
L 57.421875 12.015625 
L 68.609375 54.6875 
L 77.59375 54.6875 
L 63.28125 0 
L 52.6875 0 
L 40.921875 44.828125 
L 29.109375 0 
L 18.5 0 
z
" id="DejaVuSans-119"/>
      <path d="M 18.796875 48.875 
L 8.5 48.875 
L 8.5 57.328125 
L 16.5 72.90625 
L 22.796875 72.90625 
L 18.796875 57.328125 
z
" id="DejaVuSans-8216"/>
      <path d="M 12.703125 72.90625 
L 23 72.90625 
L 23 65.484375 
L 14.984375 49.90625 
L 8.6875 49.90625 
L 12.703125 65.484375 
z
" id="DejaVuSans-8217"/>
     </defs>
     <g transform="translate(280.610097 79.61512)scale(0.0833 -0.0833)">
      <use xlink:href="#DejaVuSans-97"/>
      <use x="61.279297" xlink:href="#DejaVuSans-32"/>
      <use x="93.066406" xlink:href="#DejaVuSans-110"/>
      <use x="156.445312" xlink:href="#DejaVuSans-101"/>
      <use x="217.96875" xlink:href="#DejaVuSans-119"/>
      <use x="299.755859" xlink:href="#DejaVuSans-32"/>
      <use x="331.542969" xlink:href="#DejaVuSans-97"/>
      <use x="392.822266" xlink:href="#DejaVuSans-100"/>
      <use x="456.298828" xlink:href="#DejaVuSans-100"/>
      <use x="519.775391" xlink:href="#DejaVuSans-105"/>
      <use x="547.558594" xlink:href="#DejaVuSans-116"/>
      <use x="586.767578" xlink:href="#DejaVuSans-105"/>
      <use x="614.550781" xlink:href="#DejaVuSans-111"/>
      <use x="675.732422" xlink:href="#DejaVuSans-110"/>
      <use x="739.111328" xlink:href="#DejaVuSans-97"/>
      <use x="800.390625" xlink:href="#DejaVuSans-108"/>
      <use x="828.173828" xlink:href="#DejaVuSans-32"/>
      <use x="859.960938" xlink:href="#DejaVuSans-100"/>
      <use x="923.4375" xlink:href="#DejaVuSans-101"/>
      <use x="984.960938" xlink:href="#DejaVuSans-115"/>
      <use x="1037.060547" xlink:href="#DejaVuSans-105"/>
      <use x="1064.84375" xlink:href="#DejaVuSans-103"/>
      <use x="1128.320312" xlink:href="#DejaVuSans-110"/>
      <use x="1191.699219" xlink:href="#DejaVuSans-97"/>
      <use x="1252.978516" xlink:href="#DejaVuSans-116"/>
      <use x="1292.1875" xlink:href="#DejaVuSans-105"/>
      <use x="1319.970703" xlink:href="#DejaVuSans-111"/>
      <use x="1381.152344" xlink:href="#DejaVuSans-110"/>
      <use x="1444.53125" xlink:href="#DejaVuSans-32"/>
      <use x="1476.318359" xlink:href="#DejaVuSans-8216"/>
      <use x="1508.105469" xlink:href="#DejaVuSans-105"/>
      <use x="1535.888672" xlink:href="#DejaVuSans-110"/>
      <use x="1599.267578" xlink:href="#DejaVuSans-116"/>
      <use x="1638.476562" xlink:href="#DejaVuSans-101"/>
      <use x="1700" xlink:href="#DejaVuSans-114"/>
      <use x="1741.113281" xlink:href="#DejaVuSans-118"/>
      <use x="1800.292969" xlink:href="#DejaVuSans-101"/>
      <use x="1861.816406" xlink:href="#DejaVuSans-110"/>
      <use x="1925.195312" xlink:href="#DejaVuSans-116"/>
      <use x="1964.404297" xlink:href="#DejaVuSans-105"/>
      <use x="1992.1875" xlink:href="#DejaVuSans-111"/>
      <use x="2053.369141" xlink:href="#DejaVuSans-110"/>
      <use x="2116.748047" xlink:href="#DejaVuSans-97"/>
      <use x="2178.027344" xlink:href="#DejaVuSans-108"/>
      <use x="2205.810547" xlink:href="#DejaVuSans-32"/>
      <use x="2237.597656" xlink:href="#DejaVuSans-101"/>
      <use x="2299.121094" xlink:href="#DejaVuSans-110"/>
      <use x="2362.5" xlink:href="#DejaVuSans-100"/>
      <use x="2425.976562" xlink:href="#DejaVuSans-111"/>
      <use x="2487.158203" xlink:href="#DejaVuSans-115"/>
      <use x="2539.257812" xlink:href="#DejaVuSans-99"/>
      <use x="2594.238281" xlink:href="#DejaVuSans-111"/>
      <use x="2655.419922" xlink:href="#DejaVuSans-112"/>
      <use x="2718.896484" xlink:href="#DejaVuSans-121"/>
      <use x="2778.076172" xlink:href="#DejaVuSans-8217"/>
      <use x="2809.863281" xlink:href="#DejaVuSans-46"/>
     </g>
    </g>
   </g>
   <g id="line2d_2">
    <path clip-path="url(#p1e8d879bd3)" d="M 315.894528 62.9355 
L 315.894528 35.7555 
" style="fill:none;stroke:#808080;stroke-linecap:square;stroke-width:1.5;"/>
   </g>
   <g id="text_5">
    <!-- 41% -->
    <defs>
     <path d="M 37.796875 64.3125 
L 12.890625 25.390625 
L 37.796875 25.390625 
z
M 35.203125 72.90625 
L 47.609375 72.90625 
L 47.609375 25.390625 
L 58.015625 25.390625 
L 58.015625 17.1875 
L 47.609375 17.1875 
L 47.609375 0 
L 37.796875 0 
L 37.796875 17.1875 
L 4.890625 17.1875 
L 4.890625 26.703125 
z
" id="DejaVuSans-52"/>
     <path d="M 12.40625 8.296875 
L 28.515625 8.296875 
L 28.515625 63.921875 
L 10.984375 60.40625 
L 10.984375 69.390625 
L 28.421875 72.90625 
L 38.28125 72.90625 
L 38.28125 8.296875 
L 54.390625 8.296875 
L 54.390625 0 
L 12.40625 0 
z
" id="DejaVuSans-49"/>
     <path d="M 72.703125 32.078125 
Q 68.453125 32.078125 66.03125 28.46875 
Q 63.625 24.859375 63.625 18.40625 
Q 63.625 12.0625 66.03125 8.421875 
Q 68.453125 4.78125 72.703125 4.78125 
Q 76.859375 4.78125 79.265625 8.421875 
Q 81.6875 12.0625 81.6875 18.40625 
Q 81.6875 24.8125 79.265625 28.4375 
Q 76.859375 32.078125 72.703125 32.078125 
z
M 72.703125 38.28125 
Q 80.421875 38.28125 84.953125 32.90625 
Q 89.5 27.546875 89.5 18.40625 
Q 89.5 9.28125 84.9375 3.921875 
Q 80.375 -1.421875 72.703125 -1.421875 
Q 64.890625 -1.421875 60.34375 3.921875 
Q 55.8125 9.28125 55.8125 18.40625 
Q 55.8125 27.59375 60.375 32.9375 
Q 64.9375 38.28125 72.703125 38.28125 
z
M 22.3125 68.015625 
Q 18.109375 68.015625 15.6875 64.375 
Q 13.28125 60.75 13.28125 54.390625 
Q 13.28125 47.953125 15.671875 44.328125 
Q 18.0625 40.71875 22.3125 40.71875 
Q 26.5625 40.71875 28.96875 44.328125 
Q 31.390625 47.953125 31.390625 54.390625 
Q 31.390625 60.6875 28.953125 64.34375 
Q 26.515625 68.015625 22.3125 68.015625 
z
M 66.40625 74.21875 
L 74.21875 74.21875 
L 28.609375 -1.421875 
L 20.796875 -1.421875 
z
M 22.3125 74.21875 
Q 30.03125 74.21875 34.609375 68.875 
Q 39.203125 63.53125 39.203125 54.390625 
Q 39.203125 45.171875 34.640625 39.84375 
Q 30.078125 34.515625 22.3125 34.515625 
Q 14.546875 34.515625 10.03125 39.859375 
Q 5.515625 45.21875 5.515625 54.390625 
Q 5.515625 63.484375 10.046875 68.84375 
Q 14.59375 74.21875 22.3125 74.21875 
z
" id="DejaVuSans-37"/>
    </defs>
    <g style="fill:#ffffff;" transform="translate(148.601612 52.104875)scale(0.1 -0.1)">
     <use xlink:href="#DejaVuSans-52"/>
     <use x="63.623047" xlink:href="#DejaVuSans-49"/>
     <use x="127.246094" xlink:href="#DejaVuSans-37"/>
    </g>
   </g>
   <g id="text_6">
    <!-- 16% -->
    <defs>
     <path d="M 33.015625 40.375 
Q 26.375 40.375 22.484375 35.828125 
Q 18.609375 31.296875 18.609375 23.390625 
Q 18.609375 15.53125 22.484375 10.953125 
Q 26.375 6.390625 33.015625 6.390625 
Q 39.65625 6.390625 43.53125 10.953125 
Q 47.40625 15.53125 47.40625 23.390625 
Q 47.40625 31.296875 43.53125 35.828125 
Q 39.65625 40.375 33.015625 40.375 
z
M 52.59375 71.296875 
L 52.59375 62.3125 
Q 48.875 64.0625 45.09375 64.984375 
Q 41.3125 65.921875 37.59375 65.921875 
Q 27.828125 65.921875 22.671875 59.328125 
Q 17.53125 52.734375 16.796875 39.40625 
Q 19.671875 43.65625 24.015625 45.921875 
Q 28.375 48.1875 33.59375 48.1875 
Q 44.578125 48.1875 50.953125 41.515625 
Q 57.328125 34.859375 57.328125 23.390625 
Q 57.328125 12.15625 50.6875 5.359375 
Q 44.046875 -1.421875 33.015625 -1.421875 
Q 20.359375 -1.421875 13.671875 8.265625 
Q 6.984375 17.96875 6.984375 36.375 
Q 6.984375 53.65625 15.1875 63.9375 
Q 23.390625 74.21875 37.203125 74.21875 
Q 40.921875 74.21875 44.703125 73.484375 
Q 48.484375 72.75 52.59375 71.296875 
z
" id="DejaVuSans-54"/>
    </defs>
    <g transform="translate(270.799799 52.104875)scale(0.1 -0.1)">
     <use xlink:href="#DejaVuSans-49"/>
     <use x="63.623047" xlink:href="#DejaVuSans-54"/>
     <use x="127.246094" xlink:href="#DejaVuSans-37"/>
    </g>
   </g>
   <g id="text_7">
    <!-- 17% -->
    <defs>
     <path d="M 8.203125 72.90625 
L 55.078125 72.90625 
L 55.078125 68.703125 
L 28.609375 0 
L 18.3125 0 
L 43.21875 64.59375 
L 8.203125 64.59375 
z
" id="DejaVuSans-55"/>
    </defs>
    <g transform="translate(341.463208 52.104875)scale(0.1 -0.1)">
     <use xlink:href="#DejaVuSans-49"/>
     <use x="63.623047" xlink:href="#DejaVuSans-55"/>
     <use x="127.246094" xlink:href="#DejaVuSans-37"/>
    </g>
   </g>
   <g id="text_8">
    <!-- 26% -->
    <defs>
     <path d="M 19.1875 8.296875 
L 53.609375 8.296875 
L 53.609375 0 
L 7.328125 0 
L 7.328125 8.296875 
Q 12.9375 14.109375 22.625 23.890625 
Q 32.328125 33.6875 34.8125 36.53125 
Q 39.546875 41.84375 41.421875 45.53125 
Q 43.3125 49.21875 43.3125 52.78125 
Q 43.3125 58.59375 39.234375 62.25 
Q 35.15625 65.921875 28.609375 65.921875 
Q 23.96875 65.921875 18.8125 64.3125 
Q 13.671875 62.703125 7.8125 59.421875 
L 7.8125 69.390625 
Q 13.765625 71.78125 18.9375 73 
Q 24.125 74.21875 28.421875 74.21875 
Q 39.75 74.21875 46.484375 68.546875 
Q 53.21875 62.890625 53.21875 53.421875 
Q 53.21875 48.921875 51.53125 44.890625 
Q 49.859375 40.875 45.40625 35.40625 
Q 44.1875 33.984375 37.640625 27.21875 
Q 31.109375 20.453125 19.1875 8.296875 
z
" id="DejaVuSans-50"/>
    </defs>
    <g style="fill:#ffffff;" transform="translate(434.855929 52.104875)scale(0.1 -0.1)">
     <use xlink:href="#DejaVuSans-50"/>
     <use x="63.623047" xlink:href="#DejaVuSans-54"/>
     <use x="127.246094" xlink:href="#DejaVuSans-37"/>
    </g>
   </g>
  </g>
 </g>
 <defs>
  <clipPath id="p1e8d879bd3">
   <rect height="27.18" width="474.3" x="49.939063" y="35.7555"/>
  </clipPath>
 </defs>
</svg>
